<?xml version="1.0" encoding="utf-8"?>
<!-- Generator: Adobe Illustrator 24.3.0, SVG Export Plug-In . SVG Version: 6.00 Build 0)  -->
<svg version="1.1" id="Layer_1" xmlns="http://www.w3.org/2000/svg" xmlns:xlink="http://www.w3.org/1999/xlink" x="0px" y="0px"
	 viewBox="0 0 1035 506" style="enable-background:new 0 0 1035 506;" xml:space="preserve">
<style type="text/css">
	.st0{fill:#E5DBC1;}
	.st1{fill:none;stroke:#000000;stroke-width:2;stroke-linejoin:round;}
	.st2{fill:#FCBC1C;}
	.st3{fill-rule:evenodd;clip-rule:evenodd;fill:#4D4D4D;}
	.st4{fill:none;stroke:#000000;stroke-width:2;stroke-linecap:round;stroke-linejoin:round;}
	.st5{fill:#FFFFFF;}
	.st6{fill:#F2F2F2;}
	.st7{fill:#8CD1CF;}
	.st8{fill:none;stroke:#FFFFFF;stroke-width:2;stroke-linecap:round;stroke-miterlimit:10;}
	.st9{fill:#333333;}
	.st10{fill:#E6E6E6;}
	.st11{fill:none;stroke:#000000;stroke-width:2;stroke-miterlimit:10;}
	.st12{fill:#4D4D4D;}
	.st13{fill:#3E3E3E;}
	.st14{fill:#292929;}
	.st15{fill:#C2C2C2;}
	.st16{fill:#8AD1E2;}
	.st17{fill:#F9761E;}
	.st18{fill:#B8B8B8;}
	.st19{fill:#CCCCCC;}
	.st20{fill:#C75E18;}
	.st21{fill:none;stroke:#FFFFFF;stroke-width:3;stroke-linecap:round;stroke-miterlimit:10;}
	.st22{fill:#3943B3;}
	.st23{fill:none;stroke:#FFFFFF;stroke-miterlimit:10;}
	.st24{fill:#FFB939;}
	.st25{fill:none;stroke:#B3B3B3;stroke-miterlimit:10;}
	.st26{fill:none;stroke:#B3B3B3;stroke-miterlimit:10;stroke-dasharray:7.0217,7.0217;}
	.st27{fill:#FFA320;}
	.st28{fill:#EB4334;}
	.st29{fill:#FFC69A;}
	.st30{fill:#DAA184;}
	.st31{fill:#411809;}
	.st32{fill:#4753DE;}
	.st33{fill:#FFB780;}
	.st34{fill:#E5A633;}
	.st35{fill:#E5E5E5;}
	.st36{fill:#E5A473;}
	.st37{fill:none;stroke:#3943B3;stroke-width:2;stroke-linecap:round;stroke-miterlimit:10;}
	.st38{fill:none;stroke:#3943B3;stroke-linecap:round;stroke-miterlimit:10;}
	.st39{fill:none;stroke:#3943B3;stroke-miterlimit:10;}
</style>
<g>
	<polygon class="st0" points="217.4,346.4 222.9,347.9 223.5,333.8 	"/>
	<polygon class="st1" points="217.4,346.4 222.9,347.9 223.5,333.8 	"/>
	<polygon class="st2" points="217.2,371.2 222.9,347.9 217.4,346.4 211.2,371.2 	"/>
	<polygon class="st1" points="217.2,371.2 222.9,347.9 217.4,346.4 211.2,371.2 	"/>
	<polygon class="st3" points="195.1,371.2 189.7,327.9 182.9,328.8 188.2,371.2 	"/>
	<polygon class="st4" points="195.1,371.2 189.7,327.9 182.9,328.8 188.2,371.2 	"/>
	<path class="st4" d="M190.1,331.3l1.8-0.2c0.8-0.1,1.5,0.5,1.6,1.3l1.9,15.3c0.1,1-0.6,1.9-1.6,2.1"/>
	<line class="st4" x1="186.1" y1="354.6" x2="192.9" y2="353.7"/>
	<polygon class="st5" points="221.1,425.1 187.4,425.1 180.6,371.2 227.9,371.2 	"/>
	<polygon class="st1" points="221.1,425.1 187.4,425.1 180.6,371.2 227.9,371.2 	"/>
	<path class="st0" d="M205.4,336.9c-2.4-0.4-4.3-2.3-4.7-4.7c-1.2-6,1.3-12.1,6.2-15.7c0,0,0,5.9,1.5,8.7
		C210.9,329.7,210.4,336.5,205.4,336.9z"/>
	<path class="st1" d="M205.4,336.9c-2.4-0.4-4.3-2.3-4.7-4.7c-1.2-6,1.3-12.1,6.2-15.7c0,0,0,5.9,1.5,8.7
		C210.9,329.7,210.4,336.5,205.4,336.9z"/>
	<line class="st4" x1="201.3" y1="352.1" x2="209.1" y2="352.1"/>
	<line class="st4" x1="201.4" y1="349.1" x2="208.9" y2="349.1"/>
	<path class="st0" d="M208.6,371.2c0.9-11.7,0.6-23.5-1-35.1c-0.7,0.5-1.5,0.7-2.3,0.8c-0.8-0.1-1.6-0.4-2.2-0.9h-0.5
		c-1.6,11.7-1.9,23.5-1,35.2H208.6z"/>
	<path class="st1" d="M208.6,371.2c0.9-11.7,0.6-23.5-1-35.1c-0.7,0.5-1.5,0.7-2.3,0.8c-0.8-0.1-1.6-0.4-2.2-0.9h-0.5
		c-1.6,11.7-1.9,23.5-1,35.2H208.6z"/>
	<path class="st6" d="M205.4,336.9c-0.8-0.1-1.6-0.4-2.2-0.9h-0.5c-0.9,6.6-1.4,13.3-1.5,20h8c-0.1-6.7-0.6-13.3-1.5-19.9
		C207,336.5,206.2,336.8,205.4,336.9z"/>
	<path class="st1" d="M205.4,336.9c-0.8-0.1-1.6-0.4-2.2-0.9h-0.5c-0.9,6.6-1.4,13.3-1.5,20h8c-0.1-6.7-0.6-13.3-1.5-19.9
		C207,336.5,206.2,336.8,205.4,336.9z"/>
	<polygon class="st7" points="221.1,425.1 187.4,425.1 180.6,371.2 227.9,371.2 	"/>
	<polygon class="st1" points="221.1,425.1 187.4,425.1 180.6,371.2 227.9,371.2 	"/>
	<line class="st8" x1="217.4" y1="402.1" x2="216.7" y2="407.5"/>
	<line class="st8" x1="221.1" y1="377.1" x2="218.2" y2="397.2"/>
	<path class="st6" d="M780.6,402.5l-3.4-2.9c0.2-1.8,0.1-3.5-0.1-5.3l3.3-2.9c0.8-0.7,1-1.8,0.6-2.8l-2.4-5.7
		c-0.4-1-1.4-1.6-2.4-1.5l-4.4,0.4c-1.1-1.4-2.4-2.6-3.8-3.7l0.3-4.4c0.1-1-0.6-2-1.5-2.4l-5.8-2.3c-1-0.4-2.1-0.1-2.8,0.7l-2.8,3.4
		c-1.8-0.2-3.5-0.1-5.3,0.1l-2.9-3.3c-0.7-0.8-1.8-1-2.8-0.6l-5.7,2.4c-1,0.4-1.6,1.4-1.5,2.4l0.4,4.4c-1.4,1.1-2.6,2.4-3.7,3.8
		l-4.4-0.3c-1-0.1-2,0.5-2.4,1.5l-2.3,5.8c-0.4,1-0.1,2.1,0.7,2.8l3.4,2.9c-0.2,1.8-0.1,3.5,0.1,5.3l-3.3,2.9
		c-0.8,0.7-1,1.8-0.6,2.8l2.5,5.7c0.4,1,1.4,1.6,2.4,1.5l4.4-0.4c1.1,1.4,2.4,2.6,3.8,3.7l-0.3,4.4c-0.1,1,0.6,2,1.5,2.4l5.8,2.3
		c1,0.4,2.1,0.1,2.8-0.7l2.9-3.4c1.8,0.2,3.5,0.1,5.3-0.1l2.9,3.3c0.7,0.8,1.8,1,2.8,0.6l5.7-2.4c1-0.4,1.6-1.4,1.5-2.4l-0.4-4.4
		c1.4-1.1,2.6-2.4,3.7-3.8l4.4,0.3c1,0.1,2-0.5,2.4-1.5l2.3-5.8C781.7,404.3,781.4,403.2,780.6,402.5 M753,410.6
		c-7.3,0-13.3-5.9-13.3-13.3c0-7.3,5.9-13.3,13.3-13.3c7.3,0,13.3,5.9,13.3,13.3v0C766.2,404.6,760.3,410.6,753,410.6"/>
	<path d="M780.6,402.5l0.6-0.8l-3.4-2.9l-0.6,0.8l1,0.1c0.1-0.8,0.1-1.6,0.1-2.4c0-1-0.1-2.1-0.2-3.1l-1,0.1l0.7,0.8l3.3-2.9l0,0
		c0.8-0.7,1.2-1.6,1.2-2.6c0-0.5-0.1-0.9-0.3-1.4l0,0l-2.4-5.7l0,0c-0.5-1.3-1.8-2.1-3.2-2.1c-0.1,0-0.2,0-0.3,0l-4.4,0.4l0.1,1
		l0.8-0.6c-1.2-1.4-2.5-2.7-3.9-3.9l-0.6,0.8l1,0.1l0.3-4.4v0l0-0.2c0-1.4-0.8-2.7-2.2-3.2l0,0l-5.8-2.3l0,0
		c-0.4-0.2-0.8-0.2-1.3-0.2c-1,0-2,0.4-2.6,1.2l0,0l-2.8,3.4l0.8,0.6l0.1-1c-0.8-0.1-1.6-0.1-2.4-0.1c-1,0-2.1,0.1-3.1,0.2l0.1,1
		l0.8-0.7l-2.9-3.3c-0.7-0.8-1.6-1.2-2.6-1.2c-0.5,0-0.9,0.1-1.4,0.3l0,0l-5.7,2.4l0,0c-1.3,0.6-2.1,1.8-2.1,3.2c0,0.1,0,0.2,0,0.3
		l0,0l0.4,4.4l1-0.1l-0.6-0.8c-1.4,1.2-2.7,2.5-3.9,3.9l0.8,0.6l0.1-1l-4.4-0.3l-0.2,0c-1.4,0-2.7,0.8-3.2,2.2l0,0l-2.3,5.8l0,0
		c-0.2,0.4-0.2,0.9-0.2,1.3c0,1,0.4,2,1.2,2.6l0,0l3.4,2.9l0.6-0.8l-1-0.1c-0.1,0.8-0.1,1.6-0.1,2.4c0,1,0.1,2.1,0.2,3.1l1-0.1
		l-0.7-0.8l-3.3,2.9l0,0c-0.8,0.7-1.2,1.6-1.2,2.6c0,0.5,0.1,0.9,0.3,1.3l0,0l2.5,5.7l0,0c0.5,1.3,1.8,2.1,3.2,2.1
		c0.1,0,0.2,0,0.3,0l0,0l4.4-0.4l-0.1-1l-0.8,0.6c1.2,1.4,2.5,2.7,3.9,3.9l0.6-0.8l-1-0.1l-0.3,4.4v0l0,0.2c0,1.4,0.9,2.7,2.2,3.2
		l0,0l5.8,2.3l0,0c0.4,0.2,0.9,0.3,1.3,0.3c1,0,1.9-0.4,2.6-1.2l2.9-3.4l-0.8-0.6l-0.1,1c0.8,0.1,1.6,0.1,2.4,0.1
		c1,0,2.1-0.1,3.1-0.2l-0.1-1l-0.8,0.7l2.9,3.3l0,0c0.7,0.8,1.6,1.2,2.6,1.2c0.5,0,0.9-0.1,1.4-0.3l0,0l5.7-2.4l0,0
		c1.3-0.5,2.1-1.8,2.1-3.2c0-0.1,0-0.2,0-0.3v0l-0.4-4.4l-1,0.1l0.6,0.8c1.4-1.2,2.7-2.5,3.8-3.9l-0.8-0.6l-0.1,1l4.4,0.3h0l0.2,0
		c1.4,0,2.7-0.8,3.2-2.2l0,0l2.3-5.8l0,0c0.2-0.4,0.2-0.8,0.2-1.2c0-1-0.4-2-1.3-2.7L780.6,402.5l0.6-0.8L780.6,402.5l-0.6,0.8
		c0.3,0.3,0.5,0.7,0.5,1.1c0,0.2,0,0.3-0.1,0.5l0.9,0.4l-0.9-0.4l-2.3,5.8l0,0c-0.2,0.5-0.7,0.9-1.3,0.9l-0.1,0l0,0l-4.4-0.3
		c-0.3,0-0.6,0.1-0.8,0.4c-1,1.3-2.2,2.5-3.5,3.6c-0.3,0.2-0.4,0.5-0.4,0.9l0.4,4.4v0l0,0.1c0,0.6-0.3,1.1-0.9,1.3l0,0l-5.7,2.4l0,0
		c-0.2,0.1-0.4,0.1-0.6,0.1c-0.4,0-0.8-0.2-1.1-0.5l0,0l-2.9-3.3c-0.2-0.2-0.5-0.4-0.9-0.3c-0.9,0.1-1.9,0.2-2.8,0.2
		c-0.7,0-1.5,0-2.2-0.1c-0.3,0-0.6,0.1-0.9,0.3l-2.9,3.4c-0.3,0.3-0.7,0.5-1.1,0.5c-0.2,0-0.4,0-0.5-0.1l0,0l-5.8-2.3l0,0
		c-0.5-0.2-0.9-0.7-0.9-1.3l0-0.1v0l0.3-4.4c0-0.3-0.1-0.6-0.4-0.8c-1.3-1-2.5-2.2-3.6-3.6c-0.2-0.3-0.5-0.4-0.9-0.4l-4.4,0.4l0,0
		l-0.1,0c-0.6,0-1.1-0.3-1.3-0.9l0,0l-2.5-5.7l0,0c-0.1-0.2-0.1-0.4-0.1-0.6c0-0.4,0.2-0.8,0.5-1.1l0,0l3.3-2.9
		c0.2-0.2,0.4-0.5,0.3-0.9c-0.1-0.9-0.2-1.9-0.2-2.8c0-0.7,0-1.5,0.1-2.2c0-0.3-0.1-0.6-0.3-0.9l-3.4-2.9l0,0
		c-0.3-0.3-0.5-0.7-0.5-1.1c0-0.2,0-0.4,0.1-0.5l0,0l2.3-5.8l0,0c0.2-0.5,0.8-0.9,1.3-0.9l0.1,0l4.4,0.3c0.3,0,0.6-0.1,0.8-0.4
		c1-1.3,2.2-2.5,3.6-3.6c0.3-0.2,0.4-0.5,0.4-0.9l-0.4-4.4l0,0l0-0.1c0-0.6,0.3-1.1,0.9-1.3l0,0l5.7-2.4l0,0
		c0.2-0.1,0.4-0.1,0.6-0.1c0.4,0,0.8,0.2,1.1,0.5l2.9,3.3c0.2,0.2,0.5,0.4,0.9,0.3c0.9-0.1,1.9-0.2,2.8-0.2c0.7,0,1.5,0,2.2,0.1
		c0.3,0,0.7-0.1,0.9-0.4l2.8-3.4l-0.8-0.6l0.8,0.7c0.3-0.3,0.7-0.5,1.1-0.5c0.2,0,0.4,0,0.5,0.1l0,0l5.8,2.3l0,0
		c0.5,0.2,0.9,0.8,0.9,1.3l0,0.1v0l-0.3,4.4c0,0.3,0.1,0.6,0.4,0.8c1.3,1.1,2.5,2.2,3.6,3.6c0.2,0.3,0.5,0.4,0.9,0.4l4.4-0.4l0.1,0
		c0.6,0,1.1,0.3,1.3,0.9l0,0l2.4,5.7l0,0c0.1,0.2,0.1,0.4,0.1,0.6c0,0.4-0.2,0.8-0.5,1.1l0,0l-3.3,2.9c-0.2,0.2-0.4,0.5-0.3,0.9
		c0.1,0.9,0.2,1.9,0.2,2.8c0,0.7,0,1.5-0.1,2.2c0,0.3,0.1,0.6,0.3,0.9l3.4,2.9l0,0L780.6,402.5 M753,410.6v-1h0
		c-6.8,0-12.3-5.5-12.3-12.3l0,0l-0.6,0h0.6l0,0l-0.6,0h0.6c0-6.8,5.5-12.3,12.3-12.3h0c6.8,0,12.3,5.5,12.3,12.3v0v0v0
		c0,6.8-5.5,12.3-12.3,12.3V410.6v1c7.9,0,14.3-6.4,14.3-14.3v0v0v0c0-7.9-6.4-14.3-14.3-14.3h0c-7.9,0-14.3,6.4-14.3,14.3l0,0l1,0
		l-1,0c0,7.9,6.4,14.3,14.3,14.3h0V410.6"/>
	<path class="st2" d="M780.6,402.5l-3.4-2.9c0.2-1.8,0.1-3.5-0.1-5.3l3.3-2.9c0.8-0.7,1-1.8,0.6-2.8l-2.4-5.7
		c-0.4-1-1.4-1.6-2.4-1.5l-4.4,0.4c-1.1-1.4-2.4-2.6-3.8-3.7l0.3-4.4c0.1-1-0.6-2-1.5-2.4l-5.8-2.3c-1-0.4-2.1-0.1-2.8,0.7l-2.8,3.4
		c-1.8-0.2-3.5-0.1-5.3,0.1l-2.9-3.3c-0.7-0.8-1.8-1-2.8-0.6l-5.7,2.4c-1,0.4-1.6,1.4-1.5,2.4l0.4,4.4c-1.4,1.1-2.6,2.4-3.7,3.8
		l-4.4-0.3c-1-0.1-2,0.5-2.4,1.5l-2.3,5.8c-0.4,1-0.1,2.1,0.7,2.8l3.4,2.9c-0.2,1.8-0.1,3.5,0.1,5.3l-3.3,2.9
		c-0.8,0.7-1,1.8-0.6,2.8l2.5,5.7c0.4,1,1.4,1.6,2.4,1.5l4.4-0.4c1.1,1.4,2.4,2.6,3.8,3.7l-0.3,4.4c-0.1,1,0.6,2,1.5,2.4l5.8,2.3
		c1,0.4,2.1,0.1,2.8-0.7l2.9-3.4c1.8,0.2,3.5,0.1,5.3-0.1l2.9,3.3c0.7,0.8,1.8,1,2.8,0.6l5.7-2.4c1-0.4,1.6-1.4,1.5-2.4l-0.4-4.4
		c1.4-1.1,2.6-2.4,3.7-3.8l4.4,0.3c1,0.1,2-0.5,2.4-1.5l2.3-5.8C781.7,404.3,781.4,403.2,780.6,402.5 M753,410.6
		c-7.3,0-13.3-5.9-13.3-13.3c0-7.3,5.9-13.3,13.3-13.3c7.3,0,13.3,5.9,13.3,13.3v0C766.2,404.6,760.3,410.6,753,410.6"/>
	<path d="M780.6,402.5l0.6-0.8l-3.4-2.9l-0.6,0.8l1,0.1c0.1-0.8,0.1-1.6,0.1-2.4c0-1-0.1-2.1-0.2-3.1l-1,0.1l0.7,0.8l3.3-2.9l0,0
		c0.8-0.7,1.2-1.6,1.2-2.6c0-0.5-0.1-0.9-0.3-1.4l0,0l-2.4-5.7l0,0c-0.5-1.3-1.8-2.1-3.2-2.1c-0.1,0-0.2,0-0.3,0l-4.4,0.4l0.1,1
		l0.8-0.6c-1.2-1.4-2.5-2.7-3.9-3.9l-0.6,0.8l1,0.1l0.3-4.4v0l0-0.2c0-1.4-0.8-2.7-2.2-3.2l0,0l-5.8-2.3l0,0
		c-0.4-0.2-0.8-0.2-1.3-0.2c-1,0-2,0.4-2.6,1.2l0,0l-2.8,3.4l0.8,0.6l0.1-1c-0.8-0.1-1.6-0.1-2.4-0.1c-1,0-2.1,0.1-3.1,0.2l0.1,1
		l0.8-0.7l-2.9-3.3c-0.7-0.8-1.6-1.2-2.6-1.2c-0.5,0-0.9,0.1-1.4,0.3l0,0l-5.7,2.4l0,0c-1.3,0.6-2.1,1.8-2.1,3.2c0,0.1,0,0.2,0,0.3
		l0,0l0.4,4.4l1-0.1l-0.6-0.8c-1.4,1.2-2.7,2.5-3.9,3.9l0.8,0.6l0.1-1l-4.4-0.3l-0.2,0c-1.4,0-2.7,0.8-3.2,2.2l0,0l-2.3,5.8l0,0
		c-0.2,0.4-0.2,0.9-0.2,1.3c0,1,0.4,2,1.2,2.6l0,0l3.4,2.9l0.6-0.8l-1-0.1c-0.1,0.8-0.1,1.6-0.1,2.4c0,1,0.1,2.1,0.2,3.1l1-0.1
		l-0.7-0.8l-3.3,2.9l0,0c-0.8,0.7-1.2,1.6-1.2,2.6c0,0.5,0.1,0.9,0.3,1.3l0,0l2.5,5.7l0,0c0.5,1.3,1.8,2.1,3.2,2.1
		c0.1,0,0.2,0,0.3,0l0,0l4.4-0.4l-0.1-1l-0.8,0.6c1.2,1.4,2.5,2.7,3.9,3.9l0.6-0.8l-1-0.1l-0.3,4.4v0l0,0.2c0,1.4,0.9,2.7,2.2,3.2
		l0,0l5.8,2.3l0,0c0.4,0.2,0.9,0.3,1.3,0.3c1,0,1.9-0.4,2.6-1.2l2.9-3.4l-0.8-0.6l-0.1,1c0.8,0.1,1.6,0.1,2.4,0.1
		c1,0,2.1-0.1,3.1-0.2l-0.1-1l-0.8,0.7l2.9,3.3l0,0c0.7,0.8,1.6,1.2,2.6,1.2c0.5,0,0.9-0.1,1.4-0.3l0,0l5.7-2.4l0,0
		c1.3-0.5,2.1-1.8,2.1-3.2c0-0.1,0-0.2,0-0.3v0l-0.4-4.4l-1,0.1l0.6,0.8c1.4-1.2,2.7-2.5,3.8-3.9l-0.8-0.6l-0.1,1l4.4,0.3h0l0.2,0
		c1.4,0,2.7-0.8,3.2-2.2l0,0l2.3-5.8l0,0c0.2-0.4,0.2-0.8,0.2-1.2c0-1-0.4-2-1.3-2.7L780.6,402.5l0.6-0.8L780.6,402.5l-0.6,0.8
		c0.3,0.3,0.5,0.7,0.5,1.1c0,0.2,0,0.3-0.1,0.5l0.9,0.4l-0.9-0.4l-2.3,5.8l0,0c-0.2,0.5-0.7,0.9-1.3,0.9l-0.1,0l0,0l-4.4-0.3
		c-0.3,0-0.6,0.1-0.8,0.4c-1,1.3-2.2,2.5-3.5,3.6c-0.3,0.2-0.4,0.5-0.4,0.9l0.4,4.4v0l0,0.1c0,0.6-0.3,1.1-0.9,1.3l0,0l-5.7,2.4l0,0
		c-0.2,0.1-0.4,0.1-0.6,0.1c-0.4,0-0.8-0.2-1.1-0.5l0,0l-2.9-3.3c-0.2-0.2-0.5-0.4-0.9-0.3c-0.9,0.1-1.9,0.2-2.8,0.2
		c-0.7,0-1.5,0-2.2-0.1c-0.3,0-0.6,0.1-0.9,0.3l-2.9,3.4c-0.3,0.3-0.7,0.5-1.1,0.5c-0.2,0-0.4,0-0.5-0.1l0,0l-5.8-2.3l0,0
		c-0.5-0.2-0.9-0.7-0.9-1.3l0-0.1v0l0.3-4.4c0-0.3-0.1-0.6-0.4-0.8c-1.3-1-2.5-2.2-3.6-3.6c-0.2-0.3-0.5-0.4-0.9-0.4l-4.4,0.4l0,0
		l-0.1,0c-0.6,0-1.1-0.3-1.3-0.9l0,0l-2.5-5.7l0,0c-0.1-0.2-0.1-0.4-0.1-0.6c0-0.4,0.2-0.8,0.5-1.1l0,0l3.3-2.9
		c0.2-0.2,0.4-0.5,0.3-0.9c-0.1-0.9-0.2-1.9-0.2-2.8c0-0.7,0-1.5,0.1-2.2c0-0.3-0.1-0.6-0.3-0.9l-3.4-2.9l0,0
		c-0.3-0.3-0.5-0.7-0.5-1.1c0-0.2,0-0.4,0.1-0.5l0,0l2.3-5.8l0,0c0.2-0.5,0.8-0.9,1.3-0.9l0.1,0l4.4,0.3c0.3,0,0.6-0.1,0.8-0.4
		c1-1.3,2.2-2.5,3.6-3.6c0.3-0.2,0.4-0.5,0.4-0.9l-0.4-4.4l0,0l0-0.1c0-0.6,0.3-1.1,0.9-1.3l0,0l5.7-2.4l0,0
		c0.2-0.1,0.4-0.1,0.6-0.1c0.4,0,0.8,0.2,1.1,0.5l2.9,3.3c0.2,0.2,0.5,0.4,0.9,0.3c0.9-0.1,1.9-0.2,2.8-0.2c0.7,0,1.5,0,2.2,0.1
		c0.3,0,0.7-0.1,0.9-0.4l2.8-3.4l-0.8-0.6l0.8,0.7c0.3-0.3,0.7-0.5,1.1-0.5c0.2,0,0.4,0,0.5,0.1l0,0l5.8,2.3l0,0
		c0.5,0.2,0.9,0.8,0.9,1.3l0,0.1v0l-0.3,4.4c0,0.3,0.1,0.6,0.4,0.8c1.3,1.1,2.5,2.2,3.6,3.6c0.2,0.3,0.5,0.4,0.9,0.4l4.4-0.4l0.1,0
		c0.6,0,1.1,0.3,1.3,0.9l0,0l2.4,5.7l0,0c0.1,0.2,0.1,0.4,0.1,0.6c0,0.4-0.2,0.8-0.5,1.1l0,0l-3.3,2.9c-0.2,0.2-0.4,0.5-0.3,0.9
		c0.1,0.9,0.2,1.9,0.2,2.8c0,0.7,0,1.5-0.1,2.2c0,0.3,0.1,0.6,0.3,0.9l3.4,2.9l0,0L780.6,402.5 M753,410.6v-1h0
		c-6.8,0-12.3-5.5-12.3-12.3l0,0l-0.6,0h0.6l0,0l-0.6,0h0.6c0-6.8,5.5-12.3,12.3-12.3h0c6.8,0,12.3,5.5,12.3,12.3v0v0v0
		c0,6.8-5.5,12.3-12.3,12.3V410.6v1c7.9,0,14.3-6.4,14.3-14.3v0v0v0c0-7.9-6.4-14.3-14.3-14.3h0c-7.9,0-14.3,6.4-14.3,14.3l0,0l1,0
		l-1,0c0,7.9,6.4,14.3,14.3,14.3h0V410.6"/>
	<path class="st6" d="M820.2,411.4l-2.1-1.8c0.1-1.1,0.1-2.2,0-3.3l2-1.8c0.5-0.4,0.6-1.1,0.4-1.7l-1.5-3.5c-0.3-0.6-0.9-1-1.5-0.9
		l-2.7,0.2c-0.7-0.8-1.5-1.6-2.3-2.3l0.2-2.7c0-0.7-0.4-1.3-1-1.5l-3.5-1.4c-0.6-0.2-1.3-0.1-1.7,0.4l-1.8,2.1
		c-1.1-0.1-2.2-0.1-3.2,0l-1.8-2c-0.4-0.5-1.1-0.6-1.7-0.4l-3.5,1.5c-0.6,0.3-1,0.9-0.9,1.5l0.2,2.7c-0.8,0.7-1.6,1.5-2.3,2.3
		l-2.7-0.2c-0.7,0-1.3,0.4-1.5,1l-1.4,3.6c-0.2,0.6-0.1,1.3,0.4,1.7l2.1,1.8c-0.1,1.1-0.1,2.2,0,3.3l-2,1.8
		c-0.5,0.4-0.6,1.1-0.4,1.7l1.5,3.5c0.3,0.6,0.9,1,1.5,0.9l2.7-0.2c0.7,0.8,1.5,1.6,2.3,2.3l-0.2,2.7c0,0.7,0.4,1.3,1,1.5l3.6,1.4
		c0.6,0.2,1.3,0.1,1.7-0.4l1.8-2.1c1.1,0.1,2.2,0.1,3.2,0l1.8,2c0.4,0.5,1.1,0.6,1.7,0.4l3.5-1.5c0.6-0.2,1-0.9,0.9-1.5l-0.2-2.7
		c0.8-0.7,1.6-1.5,2.3-2.3l2.7,0.2c0.7,0,1.2-0.4,1.5-1l1.4-3.6C820.9,412.5,820.7,411.8,820.2,411.4z M803.2,416.4
		c-4.5,0-8.2-3.7-8.2-8.2s3.7-8.2,8.2-8.2s8.2,3.7,8.2,8.2S807.7,416.4,803.2,416.4z"/>
	<path class="st1" d="M820.2,411.4l-2.1-1.8c0.1-1.1,0.1-2.2,0-3.3l2-1.8c0.5-0.4,0.6-1.1,0.4-1.7l-1.5-3.5c-0.3-0.6-0.9-1-1.5-0.9
		l-2.7,0.2c-0.7-0.8-1.5-1.6-2.3-2.3l0.2-2.7c0-0.7-0.4-1.3-1-1.5l-3.5-1.4c-0.6-0.2-1.3-0.1-1.7,0.4l-1.8,2.1
		c-1.1-0.1-2.2-0.1-3.2,0l-1.8-2c-0.4-0.5-1.1-0.6-1.7-0.4l-3.5,1.5c-0.6,0.3-1,0.9-0.9,1.5l0.2,2.7c-0.8,0.7-1.6,1.5-2.3,2.3
		l-2.7-0.2c-0.7,0-1.3,0.4-1.5,1l-1.4,3.6c-0.2,0.6-0.1,1.3,0.4,1.7l2.1,1.8c-0.1,1.1-0.1,2.2,0,3.3l-2,1.8
		c-0.5,0.4-0.6,1.1-0.4,1.7l1.5,3.5c0.3,0.6,0.9,1,1.5,0.9l2.7-0.2c0.7,0.8,1.5,1.6,2.3,2.3l-0.2,2.7c0,0.7,0.4,1.3,1,1.5l3.6,1.4
		c0.6,0.2,1.3,0.1,1.7-0.4l1.8-2.1c1.1,0.1,2.2,0.1,3.2,0l1.8,2c0.4,0.5,1.1,0.6,1.7,0.4l3.5-1.5c0.6-0.2,1-0.9,0.9-1.5l-0.2-2.7
		c0.8-0.7,1.6-1.5,2.3-2.3l2.7,0.2c0.7,0,1.2-0.4,1.5-1l1.4-3.6C820.9,412.5,820.7,411.8,820.2,411.4z M803.2,416.4
		c-4.5,0-8.2-3.7-8.2-8.2s3.7-8.2,8.2-8.2s8.2,3.7,8.2,8.2S807.7,416.4,803.2,416.4z"/>
	<path class="st2" d="M820.2,411.4l-2.1-1.8c0.1-1.1,0.1-2.2,0-3.3l2-1.8c0.5-0.4,0.6-1.1,0.4-1.7l-1.5-3.5c-0.3-0.6-0.9-1-1.5-0.9
		l-2.7,0.2c-0.7-0.8-1.5-1.6-2.3-2.3l0.2-2.7c0-0.7-0.4-1.3-1-1.5l-3.5-1.4c-0.6-0.2-1.3-0.1-1.7,0.4l-1.8,2.1
		c-1.1-0.1-2.2-0.1-3.2,0l-1.8-2c-0.4-0.5-1.1-0.6-1.7-0.4l-3.5,1.5c-0.6,0.3-1,0.9-0.9,1.5l0.2,2.7c-0.8,0.7-1.6,1.5-2.3,2.3
		l-2.7-0.2c-0.7,0-1.3,0.4-1.5,1l-1.4,3.6c-0.2,0.6-0.1,1.3,0.4,1.7l2.1,1.8c-0.1,1.1-0.1,2.2,0,3.3l-2,1.8
		c-0.5,0.4-0.6,1.1-0.4,1.7l1.5,3.5c0.3,0.6,0.9,1,1.5,0.9l2.7-0.2c0.7,0.8,1.5,1.6,2.3,2.3l-0.2,2.7c0,0.7,0.4,1.3,1,1.5l3.6,1.4
		c0.6,0.2,1.3,0.1,1.7-0.4l1.8-2.1c1.1,0.1,2.2,0.1,3.2,0l1.8,2c0.4,0.5,1.1,0.6,1.7,0.4l3.5-1.5c0.6-0.2,1-0.9,0.9-1.5l-0.2-2.7
		c0.8-0.7,1.6-1.5,2.3-2.3l2.7,0.2c0.7,0,1.2-0.4,1.5-1l1.4-3.6C820.9,412.5,820.7,411.8,820.2,411.4z M803.2,416.4
		c-4.5,0-8.2-3.7-8.2-8.2s3.7-8.2,8.2-8.2s8.2,3.7,8.2,8.2S807.7,416.4,803.2,416.4z"/>
	<path class="st1" d="M820.2,411.4l-2.1-1.8c0.1-1.1,0.1-2.2,0-3.3l2-1.8c0.5-0.4,0.6-1.1,0.4-1.7l-1.5-3.5c-0.3-0.6-0.9-1-1.5-0.9
		l-2.7,0.2c-0.7-0.8-1.5-1.6-2.3-2.3l0.2-2.7c0-0.7-0.4-1.3-1-1.5l-3.5-1.4c-0.6-0.2-1.3-0.1-1.7,0.4l-1.8,2.1
		c-1.1-0.1-2.2-0.1-3.2,0l-1.8-2c-0.4-0.5-1.1-0.6-1.7-0.4l-3.5,1.5c-0.6,0.3-1,0.9-0.9,1.5l0.2,2.7c-0.8,0.7-1.6,1.5-2.3,2.3
		l-2.7-0.2c-0.7,0-1.3,0.4-1.5,1l-1.4,3.6c-0.2,0.6-0.1,1.3,0.4,1.7l2.1,1.8c-0.1,1.1-0.1,2.2,0,3.3l-2,1.8
		c-0.5,0.4-0.6,1.1-0.4,1.7l1.5,3.5c0.3,0.6,0.9,1,1.5,0.9l2.7-0.2c0.7,0.8,1.5,1.6,2.3,2.3l-0.2,2.7c0,0.7,0.4,1.3,1,1.5l3.6,1.4
		c0.6,0.2,1.3,0.1,1.7-0.4l1.8-2.1c1.1,0.1,2.2,0.1,3.2,0l1.8,2c0.4,0.5,1.1,0.6,1.7,0.4l3.5-1.5c0.6-0.2,1-0.9,0.9-1.5l-0.2-2.7
		c0.8-0.7,1.6-1.5,2.3-2.3l2.7,0.2c0.7,0,1.2-0.4,1.5-1l1.4-3.6C820.9,412.5,820.7,411.8,820.2,411.4z M803.2,416.4
		c-4.5,0-8.2-3.7-8.2-8.2s3.7-8.2,8.2-8.2s8.2,3.7,8.2,8.2S807.7,416.4,803.2,416.4z"/>
	<path class="st9" d="M663.5,357.5V163.8c0-4.5-3.6-8.1-8.1-8.1H335.9c-4.5,0-8.1,3.6-8.1,8.1v193.7H663.5z"/>
	<path class="st1" d="M663.5,357.5V163.8c0-4.5-3.6-8.1-8.1-8.1H335.9c-4.5,0-8.1,3.6-8.1,8.1v193.7H663.5z"/>
	<rect x="339.5" y="167.4" class="st5" width="311.4" height="6.8"/>
	<rect x="339.5" y="167.4" class="st1" width="311.4" height="6.8"/>
	<path class="st10" d="M663.5,378.5v-21H327.8v21c0,4.5,3.6,8.1,8.1,8.1h319.4C659.9,386.6,663.5,383,663.5,378.5"/>
	<path d="M663.5,378.5h1v-22H326.8v22v0c0,5,4.1,9.1,9.1,9.1h319.4c5,0,9.1-4.1,9.1-9.1v0H663.5l-1,0c0,3.9-3.2,7.1-7.1,7.1H335.9h0
		c-3.9,0-7.1-3.2-7.1-7.1v-20h333.7v20v0L663.5,378.5"/>
	<rect x="339.5" y="167.4" class="st11" width="311.4" height="176.6"/>
	<polygon class="st10" points="525.5,420.6 465.4,420.6 469.2,386.6 521.7,386.6 	"/>
	<polygon class="st1" points="525.5,420.6 465.4,420.6 469.2,386.6 521.7,386.6 	"/>
	<path class="st6" d="M459,420.6h73.3c0.9,0,1.7,0.7,1.7,1.7v3.2h-76.6v-3.2C457.3,421.3,458.1,420.6,459,420.6L459,420.6z"/>
	<path class="st1" d="M459,420.6h73.3c0.9,0,1.7,0.7,1.7,1.7v3.2h-76.6v-3.2C457.3,421.3,458.1,420.6,459,420.6L459,420.6z"/>
	<line class="st8" x1="354.6" y1="201.7" x2="368.5" y2="187.8"/>
	<line class="st8" x1="381.5" y1="190.3" x2="388.4" y2="183.3"/>
	<line class="st8" x1="350.2" y1="221.6" x2="375.3" y2="196.4"/>
	<path class="st6" d="M643.6,412.7c-12.3,0-22.2,3.9-22.2,8.6c0,1.5,1,2.9,2.8,4.2H663c1.8-1.2,2.8-2.7,2.8-4.2
		C665.8,416.5,655.8,412.7,643.6,412.7z"/>
	<path class="st11" d="M643.6,412.7c-12.3,0-22.2,3.9-22.2,8.6c0,1.5,1,2.9,2.8,4.2H663c1.8-1.2,2.8-2.7,2.8-4.2
		C665.8,416.5,655.8,412.7,643.6,412.7z"/>
	<path class="st10" d="M362.3,418.6H567c1.3,0,2.4,1.1,2.4,2.4v4.4H359.8v-4.4C359.8,419.7,360.9,418.6,362.3,418.6z"/>
	<path class="st1" d="M362.3,418.6H567c1.3,0,2.4,1.1,2.4,2.4v4.4H359.8v-4.4C359.8,419.7,360.9,418.6,362.3,418.6z"/>
	<rect x="369.5" y="413.8" class="st5" width="11.6" height="4.9"/>
	<rect x="369.5" y="413.8" class="st11" width="11.6" height="4.9"/>
	<rect x="387" y="413.8" class="st5" width="11.6" height="4.9"/>
	<rect x="387" y="413.8" class="st11" width="11.6" height="4.9"/>
	<rect x="403.5" y="413.8" class="st5" width="11.6" height="4.9"/>
	<rect x="403.5" y="413.8" class="st11" width="11.6" height="4.9"/>
	<rect x="420" y="413.8" class="st5" width="11.6" height="4.9"/>
	<rect x="420" y="413.8" class="st11" width="11.6" height="4.9"/>
	<rect x="493.7" y="413.8" class="st5" width="11.6" height="4.9"/>
	<rect x="493.7" y="413.8" class="st11" width="11.6" height="4.9"/>
	<rect x="510.2" y="413.8" class="st5" width="11.6" height="4.9"/>
	<rect x="510.2" y="413.8" class="st11" width="11.6" height="4.9"/>
	<rect x="526.7" y="413.8" class="st5" width="8.7" height="4.9"/>
	<rect x="526.7" y="413.8" class="st11" width="8.7" height="4.9"/>
	<rect x="541.3" y="413.8" class="st5" width="8.7" height="4.9"/>
	<rect x="541.3" y="413.8" class="st11" width="8.7" height="4.9"/>
	<rect x="554.9" y="413.8" class="st5" width="8.7" height="4.9"/>
	<rect x="554.9" y="413.8" class="st11" width="8.7" height="4.9"/>
	<rect x="436.5" y="413.8" class="st5" width="52.4" height="4.9"/>
	<rect x="436.5" y="413.8" class="st11" width="52.4" height="4.9"/>
	<path class="st6" d="M20.3,425.4h994.5c2.1,0,3.9,1.7,3.9,3.9v12.6c0,2.1-1.7,3.9-3.9,3.9H20.3c-2.1,0-3.9-1.7-3.9-3.9v-12.6
		C16.4,427.2,18.1,425.4,20.3,425.4"/>
	<path d="M20.3,425.4v1h994.5c1.6,0,2.9,1.3,2.9,2.9v12.6c0,1.6-1.3,2.9-2.9,2.9H20.3c-1.6,0-2.9-1.3-2.9-2.9v-12.6
		c0-1.6,1.3-2.9,2.9-2.9V425.4v-1c-2.7,0-4.9,2.2-4.9,4.9v12.6c0,2.7,2.2,4.9,4.9,4.9h994.5c2.7,0,4.9-2.2,4.9-4.9v-12.6
		c0-2.7-2.2-4.9-4.9-4.9H20.3V425.4"/>
	<polyline class="st12" points="83.3,445.8 950.7,445.8 950.7,454.5 83.3,454.5 83.3,445.8 	"/>
	<path d="M83.3,445.8v1h866.4v6.7H84.3v-7.7H83.3v1V445.8h-1v8.7c0,0.3,0.1,0.5,0.3,0.7c0.2,0.2,0.4,0.3,0.7,0.3h867.4
		c0.3,0,0.5-0.1,0.7-0.3c0.2-0.2,0.3-0.4,0.3-0.7v-8.7c0-0.3-0.1-0.5-0.3-0.7c-0.2-0.2-0.4-0.3-0.7-0.3H83.3c-0.3,0-0.5,0.1-0.7,0.3
		c-0.2,0.2-0.3,0.4-0.3,0.7H83.3"/>
	<polyline class="st13" points="949.7,446.8 84.3,446.8 84.3,449.7 949.7,449.7 949.7,446.8 	"/>
	<polyline points="950.7,445.8 83.3,445.8 83.3,449.7 84.3,449.7 84.3,446.8 949.7,446.8 949.7,449.7 950.7,449.7 950.7,445.8 	"/>
	<polyline class="st9" points="130.9,454.5 176.5,454.5 176.5,505 130.9,505 130.9,454.5 	"/>
	<path d="M130.9,454.5v1h44.6V504h-43.6v-49.5H130.9v1V454.5h-1V505c0,0.3,0.1,0.5,0.3,0.7c0.2,0.2,0.4,0.3,0.7,0.3h45.6
		c0.3,0,0.5-0.1,0.7-0.3c0.2-0.2,0.3-0.4,0.3-0.7v-50.5c0-0.3-0.1-0.5-0.3-0.7c-0.2-0.2-0.4-0.3-0.7-0.3h-45.6
		c-0.3,0-0.5,0.1-0.7,0.3c-0.2,0.2-0.3,0.4-0.3,0.7H130.9"/>
	<polyline class="st9" points="859.5,454.5 905.1,454.5 905.1,505 859.5,505 859.5,454.5 	"/>
	<path d="M859.5,454.5v1h44.6V504h-43.6v-49.5H859.5v1V454.5h-1V505c0,0.3,0.1,0.5,0.3,0.7c0.2,0.2,0.4,0.3,0.7,0.3h45.6
		c0.3,0,0.5-0.1,0.7-0.3c0.2-0.2,0.3-0.4,0.3-0.7v-50.5c0-0.3-0.1-0.5-0.3-0.7c-0.2-0.2-0.4-0.3-0.7-0.3h-45.6
		c-0.3,0-0.5,0.1-0.7,0.3c-0.2,0.2-0.3,0.4-0.3,0.7H859.5"/>
	<polyline class="st14" points="175.5,455.5 131.9,455.5 131.9,463.3 175.5,463.3 175.5,455.5 	"/>
	<polyline points="176.5,454.5 130.9,454.5 130.9,463.3 131.9,463.3 131.9,455.5 175.5,455.5 175.5,463.3 176.5,463.3 176.5,454.5 	
		"/>
	<polyline class="st14" points="904.1,455.5 860.5,455.5 860.5,463.3 904.1,463.3 904.1,455.5 	"/>
	<polyline points="905.1,454.5 859.5,454.5 859.5,463.3 860.5,463.3 860.5,455.5 904.1,455.5 904.1,463.3 905.1,463.3 905.1,454.5 	
		"/>
	<rect x="709.1" y="302.2" class="st1" width="32" height="32"/>
	<line class="st1" x1="709.1" y1="302.2" x2="741.1" y2="334.2"/>
	<line class="st1" x1="741.1" y1="302.2" x2="709.1" y2="334.2"/>
	<path d="M709.1,270.2v1h31v30h-30v-31H709.1v1V270.2h-1v32c0,0.3,0.1,0.5,0.3,0.7c0.2,0.2,0.4,0.3,0.7,0.3h32
		c0.3,0,0.5-0.1,0.7-0.3c0.2-0.2,0.3-0.4,0.3-0.7v-32c0-0.3-0.1-0.5-0.3-0.7c-0.2-0.2-0.4-0.3-0.7-0.3h-32c-0.3,0-0.5,0.1-0.7,0.3
		c-0.2,0.2-0.3,0.4-0.3,0.7H709.1"/>
	<line class="st1" x1="709.1" y1="270.2" x2="741.1" y2="302.2"/>
	<polyline points="740.4,269.5 708.4,301.5 709.8,302.9 741.8,270.9 740.4,269.5 	"/>
	<rect x="709.1" y="238.2" class="st1" width="32" height="32"/>
	<line class="st1" x1="709.1" y1="238.2" x2="741.1" y2="270.2"/>
	<line class="st1" x1="741.1" y1="238.2" x2="709.1" y2="270.2"/>
	<rect x="709.1" y="206.2" class="st1" width="32" height="32"/>
	<line class="st1" x1="709.1" y1="206.2" x2="741.1" y2="238.2"/>
	<line class="st1" x1="741.1" y1="206.2" x2="709.1" y2="238.2"/>
	<rect x="709.1" y="174.1" class="st1" width="32" height="32"/>
	<line class="st1" x1="709.1" y1="174.1" x2="741.1" y2="206.2"/>
	<line class="st1" x1="741.1" y1="174.1" x2="709.1" y2="206.2"/>
	<rect x="709.1" y="142.1" class="st1" width="32" height="32"/>
	<line class="st1" x1="709.1" y1="142.1" x2="741.1" y2="174.1"/>
	<line class="st1" x1="741.1" y1="142.1" x2="709.1" y2="174.1"/>
	<rect x="709.1" y="110.1" class="st1" width="32" height="32"/>
	<line class="st1" x1="709.1" y1="110.1" x2="741.1" y2="142.1"/>
	<line class="st1" x1="741.1" y1="110.1" x2="709.1" y2="142.1"/>
	<rect x="709.1" y="78.1" class="st1" width="32" height="32"/>
	<polygon class="st1" points="741.1,78.1 709.1,78.1 717.9,30.6 732.4,30.6 	"/>
	<line class="st1" x1="709.1" y1="78.1" x2="741.1" y2="110.1"/>
	<line class="st1" x1="741.1" y1="78.1" x2="709.1" y2="110.1"/>
	<line class="st1" x1="709.1" y1="78.1" x2="732.4" y2="30.6"/>
	<line class="st1" x1="741.1" y1="78.1" x2="717.9" y2="30.6"/>
	<rect x="709.1" y="334.2" class="st1" width="32" height="32"/>
	<line class="st1" x1="709.1" y1="334.2" x2="741.1" y2="366.3"/>
	<line class="st1" x1="741.1" y1="334.2" x2="709.1" y2="366.3"/>
	<rect x="709.1" y="366.3" class="st1" width="32" height="32"/>
	<line class="st1" x1="709.1" y1="366.3" x2="741.1" y2="398.3"/>
	<line class="st1" x1="741.1" y1="366.3" x2="709.1" y2="398.3"/>
	<path class="st2" d="M725.1,16c5.1,0,9.2,4.1,9.2,9.2c0,5.1-4.1,9.2-9.2,9.2s-9.2-4.1-9.2-9.2C715.9,20.1,720,16,725.1,16z"/>
	<path class="st1" d="M725.1,16c5.1,0,9.2,4.1,9.2,9.2c0,5.1-4.1,9.2-9.2,9.2s-9.2-4.1-9.2-9.2C715.9,20.1,720,16,725.1,16z"/>
	<rect x="741.1" y="117.9" class="st1" width="82.5" height="3.9"/>
	<rect x="741.1" y="104.3" class="st1" width="82.5" height="13.6"/>
	<line class="st1" x1="746" y1="104.3" x2="746" y2="117.9"/>
	<line class="st1" x1="750.8" y1="104.3" x2="750.8" y2="117.9"/>
	<line class="st1" x1="755.7" y1="104.3" x2="755.7" y2="117.9"/>
	<line class="st1" x1="765.4" y1="104.3" x2="765.4" y2="117.9"/>
	<line class="st1" x1="775.1" y1="104.3" x2="775.1" y2="117.9"/>
	<line class="st1" x1="784.8" y1="104.3" x2="784.8" y2="117.9"/>
	<line class="st1" x1="794.5" y1="104.3" x2="794.5" y2="117.9"/>
	<line class="st1" x1="804.2" y1="104.3" x2="804.2" y2="117.9"/>
	<line class="st1" x1="813.9" y1="104.3" x2="813.9" y2="117.9"/>
	<line class="st1" x1="760.5" y1="104.3" x2="760.5" y2="117.9"/>
	<line class="st1" x1="770.2" y1="104.3" x2="770.2" y2="117.9"/>
	<line class="st1" x1="779.9" y1="104.3" x2="779.9" y2="117.9"/>
	<line class="st1" x1="789.7" y1="104.3" x2="789.7" y2="117.9"/>
	<line class="st1" x1="799.4" y1="104.3" x2="799.4" y2="117.9"/>
	<line class="st1" x1="809.1" y1="104.3" x2="809.1" y2="117.9"/>
	<line class="st1" x1="818.8" y1="104.3" x2="818.8" y2="117.9"/>
	<line class="st1" x1="731.4" y1="17.9" x2="792.6" y2="129.5"/>
	<polygon class="st1" points="515.1,102.4 495.7,102.4 515.1,82.9 	"/>
	<rect x="515.1" y="82.9" class="st1" width="19.4" height="19.4"/>
	<line class="st1" x1="515.1" y1="82.9" x2="534.5" y2="102.4"/>
	<line class="st1" x1="534.5" y1="82.9" x2="516" y2="101.4"/>
	<rect x="534.5" y="82.9" class="st1" width="19.4" height="19.4"/>
	<line class="st1" x1="534.5" y1="82.9" x2="553.9" y2="102.4"/>
	<line class="st1" x1="553.9" y1="82.9" x2="535.4" y2="101.4"/>
	<rect x="553.9" y="82.9" class="st1" width="19.4" height="19.4"/>
	<line class="st1" x1="553.9" y1="82.9" x2="573.3" y2="102.4"/>
	<line class="st1" x1="573.3" y1="82.9" x2="554.9" y2="101.4"/>
	<rect x="573.3" y="82.9" class="st1" width="19.4" height="19.4"/>
	<line class="st1" x1="573.3" y1="82.9" x2="592.7" y2="102.4"/>
	<line class="st1" x1="592.7" y1="82.9" x2="574.3" y2="101.4"/>
	<rect x="592.7" y="82.9" class="st1" width="19.4" height="19.4"/>
	<line class="st1" x1="592.7" y1="82.9" x2="612.1" y2="102.4"/>
	<line class="st1" x1="612.1" y1="82.9" x2="593.7" y2="101.4"/>
	<rect x="612.1" y="82.9" class="st1" width="19.4" height="19.4"/>
	<line class="st1" x1="612.1" y1="82.9" x2="631.5" y2="102.4"/>
	<line class="st1" x1="631.5" y1="82.9" x2="613.1" y2="101.4"/>
	<rect x="631.5" y="82.9" class="st1" width="19.4" height="19.4"/>
	<line class="st1" x1="631.5" y1="82.9" x2="650.9" y2="102.4"/>
	<line class="st1" x1="650.9" y1="82.9" x2="632.5" y2="101.4"/>
	<rect x="650.9" y="82.9" class="st1" width="19.4" height="19.4"/>
	<line class="st1" x1="650.9" y1="82.9" x2="670.3" y2="102.4"/>
	<line class="st1" x1="670.3" y1="82.9" x2="651.9" y2="101.4"/>
	<rect x="670.3" y="82.9" class="st1" width="19.4" height="19.4"/>
	<line class="st1" x1="670.3" y1="82.9" x2="689.7" y2="102.4"/>
	<line class="st1" x1="689.7" y1="82.9" x2="671.3" y2="101.4"/>
	<rect x="689.7" y="82.9" class="st1" width="19.4" height="19.4"/>
	<line class="st1" x1="689.7" y1="82.9" x2="709.1" y2="102.4"/>
	<line class="st1" x1="709.1" y1="82.9" x2="690.7" y2="101.4"/>
	<line class="st1" x1="515.1" y1="102.4" x2="505.4" y2="92.6"/>
	<line class="st1" x1="718.8" y1="18.9" x2="612.1" y2="82.9"/>
	<line class="st1" x1="515.1" y1="82.9" x2="718.8" y2="18.9"/>
	<polyline class="st6" points="692.6,398.3 757.6,398.3 757.6,407 692.6,407 692.6,398.3 	"/>
	<path d="M692.6,398.3v1h64v6.7h-63v-7.7H692.6v1V398.3h-1v8.7c0,0.3,0.1,0.5,0.3,0.7c0.2,0.2,0.4,0.3,0.7,0.3h65
		c0.3,0,0.5-0.1,0.7-0.3c0.2-0.2,0.3-0.4,0.3-0.7v-8.7c0-0.3-0.1-0.5-0.3-0.7c-0.2-0.2-0.4-0.3-0.7-0.3h-65c-0.3,0-0.5,0.1-0.7,0.3
		c-0.2,0.2-0.3,0.4-0.3,0.7H692.6"/>
	<polyline class="st15" points="756.6,403.1 693.6,403.1 693.6,406 756.6,406 756.6,403.1 	"/>
	<polyline points="757.6,403.1 756.6,403.1 756.6,406 693.6,406 693.6,403.1 692.6,403.1 692.6,407 757.6,407 757.6,403.1 	"/>
	<rect x="684.9" y="407" class="st6" width="80.5" height="18.4"/>
	<rect x="684.9" y="407" class="st1" width="80.5" height="18.4"/>
	<path class="st2" d="M733.4,156.7h-48.5c-4.3,0-7.8-3.5-7.8-7.8v-24.6c0-2.3,0.5-4.6,1.6-6.6l6.1-11.9c2.4-5,7.5-8.3,13.1-8.3h35.5
		c2.1,0,3.9,1.7,3.9,3.9v51.4C737.3,154.9,735.5,156.7,733.4,156.7z"/>
	<path class="st1" d="M733.4,156.7h-48.5c-4.3,0-7.8-3.5-7.8-7.8v-24.6c0-2.3,0.5-4.6,1.6-6.6l6.1-11.9c2.4-5,7.5-8.3,13.1-8.3h35.5
		c2.1,0,3.9,1.7,3.9,3.9v51.4C737.3,154.9,735.5,156.7,733.4,156.7z"/>
	<path class="st16" d="M683.9,132.4h22.3v-28.1h-8.6c-2.5,0-4.7,1.3-5.9,3.5l-6.5,11.8c-0.8,1.4-1.2,3.1-1.2,4.7V132.4z"/>
	<path class="st1" d="M683.9,132.4h22.3v-28.1h-8.6c-2.5,0-4.7,1.3-5.9,3.5l-6.5,11.8c-0.8,1.4-1.2,3.1-1.2,4.7V132.4z"/>
	<path class="st16" d="M706.2,149.9h-19.4c-1.6,0-2.9-1.3-2.9-2.9v-10.7h22.3V149.9z"/>
	<path class="st1" d="M706.2,149.9h-19.4c-1.6,0-2.9-1.3-2.9-2.9v-10.7h22.3V149.9z"/>
	<rect x="711.1" y="103.3" class="st2" width="21.3" height="53.4"/>
	<rect x="711.1" y="103.3" class="st1" width="21.3" height="53.4"/>
	<rect x="682" y="156.7" class="st2" width="54.3" height="4.9"/>
	<rect x="682" y="156.7" class="st1" width="54.3" height="4.9"/>
	<rect x="792.6" y="121.8" class="st2" width="31" height="7.8"/>
	<rect x="792.6" y="121.8" class="st1" width="31" height="7.8"/>
	<line class="st8" x1="697" y1="111.9" x2="698.2" y2="110"/>
	<line class="st8" x1="691" y1="121.6" x2="694.6" y2="115.9"/>
	<polyline class="st5" points="306.5,402.2 353,402.2 353,411.9 306.5,411.9 306.5,402.2 	"/>
	<path d="M306.5,402.2v1H352v7.7h-44.6v-8.7H306.5v1V402.2h-1v9.7c0,0.3,0.1,0.5,0.3,0.7c0.2,0.2,0.4,0.3,0.7,0.3H353
		c0.3,0,0.5-0.1,0.7-0.3c0.2-0.2,0.3-0.4,0.3-0.7v-9.7c0-0.3-0.1-0.5-0.3-0.7c-0.2-0.2-0.4-0.3-0.7-0.3h-46.6
		c-0.3,0-0.5,0.1-0.7,0.3c-0.2,0.2-0.3,0.4-0.3,0.7H306.5"/>
	<polyline class="st5" points="285.1,368.2 374.4,368.2 374.4,381.8 285.1,381.8 285.1,368.2 	"/>
	<path d="M285.1,368.2v1h88.3v11.6h-87.3v-12.6H285.1v1V368.2h-1v13.6c0,0.3,0.1,0.5,0.3,0.7c0.2,0.2,0.4,0.3,0.7,0.3h89.3
		c0.3,0,0.5-0.1,0.7-0.3c0.2-0.2,0.3-0.4,0.3-0.7v-13.6c0-0.3-0.1-0.5-0.3-0.7c-0.2-0.2-0.4-0.3-0.7-0.3h-89.3
		c-0.3,0-0.5,0.1-0.7,0.3c-0.2,0.2-0.3,0.4-0.3,0.7H285.1"/>
	<polyline class="st17" points="304.2,381.8 295,381.8 301.6,368.2 310.7,368.2 304.2,381.8 	"/>
	<path d="M304.2,381.8v-1h-7.6l5.6-11.6h6.9l-5.8,12.1L304.2,381.8v-1V381.8l0.9,0.4l6.5-13.6c0.1-0.3,0.1-0.7-0.1-1
		c-0.2-0.3-0.5-0.5-0.8-0.5h-9.1c-0.4,0-0.7,0.2-0.9,0.6l-6.5,13.6c-0.1,0.3-0.1,0.7,0.1,1c0.2,0.3,0.5,0.5,0.8,0.5h9.1
		c0.4,0,0.7-0.2,0.9-0.6L304.2,381.8"/>
	<polygon class="st17" points="322.1,381.8 313,381.8 319.5,368.2 328.6,368.2 	"/>
	<polygon class="st1" points="322.1,381.8 313,381.8 319.5,368.2 328.6,368.2 	"/>
	<polygon class="st17" points="340,381.8 330.9,381.8 337.4,368.2 346.6,368.2 	"/>
	<polygon class="st1" points="340,381.8 330.9,381.8 337.4,368.2 346.6,368.2 	"/>
	<polyline class="st17" points="358,381.8 348.8,381.8 355.3,368.2 364.5,368.2 358,381.8 	"/>
	<path d="M358,381.8v-1h-7.6l5.6-11.6h6.9l-5.8,12.1L358,381.8v-1V381.8l0.9,0.4l6.5-13.6c0.1-0.3,0.1-0.7-0.1-1
		c-0.2-0.3-0.5-0.5-0.8-0.5h-9.1c-0.4,0-0.7,0.2-0.9,0.6l-6.5,13.6c-0.1,0.3-0.1,0.7,0.1,1c0.2,0.3,0.5,0.5,0.8,0.5h9.1
		c0.4,0,0.7-0.2,0.9-0.6L358,381.8"/>
	<polygon class="st17" points="373.3,368.2 366.7,381.8 374.4,381.8 374.4,368.2 	"/>
	<polygon class="st1" points="373.3,368.2 366.7,381.8 374.4,381.8 374.4,368.2 	"/>
	<polygon class="st17" points="285.1,368.2 285.1,381.8 286.3,381.8 292.8,368.2 	"/>
	<polygon class="st1" points="285.1,368.2 285.1,381.8 286.3,381.8 292.8,368.2 	"/>
	<polyline class="st17" points="308.1,411.9 300.3,411.9 305.9,402.2 313.6,402.2 308.1,411.9 	"/>
	<path d="M308.1,411.9v-1h-6l4.4-7.7h5.4l-4.7,8.2L308.1,411.9v-1V411.9l0.9,0.5l5.5-9.7c0.2-0.3,0.2-0.7,0-1
		c-0.2-0.3-0.5-0.5-0.9-0.5h-7.8c-0.4,0-0.7,0.2-0.9,0.5l-5.5,9.7c-0.2,0.3-0.2,0.7,0,1c0.2,0.3,0.5,0.5,0.9,0.5h7.8
		c0.4,0,0.7-0.2,0.9-0.5L308.1,411.9"/>
	<polygon class="st17" points="323.3,411.9 315.5,411.9 321.1,402.2 328.8,402.2 	"/>
	<polygon class="st1" points="323.3,411.9 315.5,411.9 321.1,402.2 328.8,402.2 	"/>
	<polygon class="st17" points="338.5,411.9 330.7,411.9 336.2,402.2 344,402.2 	"/>
	<polygon class="st1" points="338.5,411.9 330.7,411.9 336.2,402.2 344,402.2 	"/>
	<polyline class="st17" points="353.7,411.9 345.9,411.9 351.4,402.2 359.2,402.2 353.7,411.9 	"/>
	<path d="M353.7,411.9v-1h-6l4.4-7.7h5.4l-4.7,8.2L353.7,411.9v-1V411.9l0.9,0.5l5.5-9.7c0.2-0.3,0.2-0.7,0-1
		c-0.2-0.3-0.5-0.5-0.9-0.5h-7.8c-0.4,0-0.7,0.2-0.9,0.5l-5.5,9.7c-0.2,0.3-0.2,0.7,0,1c0.2,0.3,0.5,0.5,0.9,0.5h7.8
		c0.4,0,0.7-0.2,0.9-0.5L353.7,411.9"/>
	<polyline class="st10" points="296.8,381.8 306.5,381.8 306.5,425.4 296.8,425.4 296.8,381.8 	"/>
	<polyline points="296.8,381.8 296.8,382.8 305.5,382.8 305.5,424.4 297.8,424.4 297.8,381.8 296.8,381.8 296.8,382.8 296.8,381.8 
		295.8,381.8 295.8,426.4 307.5,426.4 307.5,380.8 295.8,380.8 295.8,381.8 296.8,381.8 	"/>
	<polyline class="st10" points="353,381.8 362.7,381.8 362.7,425.4 353,425.4 353,381.8 	"/>
	<polyline points="353,381.8 353,382.8 361.7,382.8 361.7,424.4 354,424.4 354,381.8 353,381.8 353,382.8 353,381.8 352,381.8 
		352,426.4 363.7,426.4 363.7,380.8 352,380.8 352,381.8 353,381.8 	"/>
	<polyline class="st18" points="305.5,382.8 297.8,382.8 297.8,386.6 305.5,386.6 305.5,382.8 	"/>
	<polyline points="306.5,381.8 296.8,381.8 296.8,386.6 297.8,386.6 297.8,382.8 305.5,382.8 305.5,386.6 306.5,386.6 306.5,381.8 	
		"/>
	<polyline class="st18" points="361.7,382.8 354,382.8 354,386.6 361.7,386.6 361.7,382.8 	"/>
	<polyline points="362.7,381.8 353,381.8 353,386.6 354,386.6 354,382.8 361.7,382.8 361.7,386.6 362.7,386.6 362.7,381.8 	"/>
	<rect x="299.7" y="363.3" class="st10" width="3.9" height="4.9"/>
	<rect x="299.7" y="363.3" class="st11" width="3.9" height="4.9"/>
	<path class="st2" d="M301.6,351.7c3.2,0,5.8,2.6,5.8,5.8c0,3.2-2.6,5.8-5.8,5.8c-3.2,0-5.8-2.6-5.8-5.8
		C295.8,354.3,298.4,351.7,301.6,351.7z"/>
	<path class="st1" d="M301.6,351.7c3.2,0,5.8,2.6,5.8,5.8c0,3.2-2.6,5.8-5.8,5.8c-3.2,0-5.8-2.6-5.8-5.8
		C295.8,354.3,298.4,351.7,301.6,351.7z"/>
	<path class="st8" d="M301.6,354.6c1.6,0,2.9,1.3,2.9,2.9"/>
	<rect x="356" y="363.3" class="st10" width="3.9" height="4.9"/>
	<rect x="356" y="363.3" class="st11" width="3.9" height="4.9"/>
	<path class="st2" d="M357.9,351.7c3.2,0,5.8,2.6,5.8,5.8c0,3.2-2.6,5.8-5.8,5.8c-3.2,0-5.8-2.6-5.8-5.8
		C352.1,354.3,354.7,351.7,357.9,351.7z"/>
	<path class="st1" d="M357.9,351.7c3.2,0,5.8,2.6,5.8,5.8c0,3.2-2.6,5.8-5.8,5.8c-3.2,0-5.8-2.6-5.8-5.8
		C352.1,354.3,354.7,351.7,357.9,351.7z"/>
	<path class="st8" d="M357.9,354.6c1.6,0,2.9,1.3,2.9,2.9"/>
	<polyline class="st19" points="310.4,409.9 309.8,410.9 310.4,410.9 310.4,409.9 	"/>
	<polyline points="310.4,410.9 309.8,410.9 309.2,411.9 310.4,411.9 310.4,410.9 	"/>
	<polyline class="st20" points="310.4,403.2 307.5,403.2 307.5,410.9 307.5,410.9 310.4,405.8 310.4,403.2 	"/>
	<path d="M310.4,405.8l-2.9,5h0v1h1.8l0.6-1l0.6-1V405.8 M310.4,402.2h-2.9v1h2.9V402.2"/>
	<polyline points="307.5,402.2 306.5,402.2 306.5,411.9 307.5,411.9 307.5,410.9 307.5,403.2 307.5,402.2 	"/>
	<polyline class="st19" points="349.7,403.2 349.2,403.2 349.2,404.1 349.7,403.2 	"/>
	<polyline points="350.3,402.2 349.2,402.2 349.2,403.2 349.7,403.2 350.3,402.2 	"/>
	<polyline class="st20" points="352,403.2 352,403.2 349.2,408.2 349.2,410.9 352,410.9 352,403.2 	"/>
	<path d="M352,410.9h-2.9v1h2.9V410.9 M352,402.2h-1.8l-0.6,1l-0.6,1v4l2.9-5h0V402.2"/>
	<polyline points="353,402.2 352,402.2 352,403.2 352,410.9 352,411.9 353,411.9 353,402.2 	"/>
	<path class="st8" d="M874.4,378.8v-10.3c0-3.7,3-6.7,6.7-6.7h6.7c3.7,0,6.7-3,6.7-6.7v0c0-3.7-3-6.7-6.7-6.7h0h-26.7
		c-3.7,0-6.7-3-6.7-6.7s3-6.7,6.7-6.7h30.4c3.7,0,6.7-3,6.7-6.7s-3-6.7-6.7-6.7h-19.8c-3.7,0-6.7-3-6.7-6.7s3-6.7,6.7-6.7h5.8
		c3.7,0,6.7-3,6.7-6.7v-7.6"/>
	<path class="st7" d="M868.7,421.9h12.3c11.2-2.4,19.3-12.2,19.4-23.7V380c0-0.7-0.6-1.2-1.2-1.2h-48.7c-0.7,0-1.2,0.5-1.2,1.2v18.1
		C849.3,409.6,857.4,419.5,868.7,421.9z"/>
	<path class="st1" d="M868.7,421.9h12.3c11.2-2.4,19.3-12.2,19.4-23.7V380c0-0.7-0.6-1.2-1.2-1.2h-48.7c-0.7,0-1.2,0.5-1.2,1.2v18.1
		C849.3,409.6,857.4,419.5,868.7,421.9z"/>
	<path class="st7" d="M911.3,383.8c-3.2-3-8.1-2.5-10.9-1.8v4.1c2.2-0.7,6.2-1.3,8.2,0.6c3,2.9,0.2,9.9-1.7,12.1
		c-2,2.1-4.4,3.7-7.1,4.7c-0.4,1.6-0.9,3.2-1.7,4.7c4.5-1.1,8.6-3.4,11.7-6.7C912.9,398,916.4,388.6,911.3,383.8z"/>
	<path class="st1" d="M911.3,383.8c-3.2-3-8.1-2.5-10.9-1.8v4.1c2.2-0.7,6.2-1.3,8.2,0.6c3,2.9,0.2,9.9-1.7,12.1
		c-2,2.1-4.4,3.7-7.1,4.7c-0.4,1.6-0.9,3.2-1.7,4.7c4.5-1.1,8.6-3.4,11.7-6.7C912.9,398,916.4,388.6,911.3,383.8z"/>
	<path class="st8" d="M855.6,400.6c0.3,2.6,1.2,5.1,2.5,7.4"/>
	<line class="st8" x1="855.5" y1="383.3" x2="855.5" y2="395.8"/>
	<rect x="839.3" y="421.9" class="st6" width="70.9" height="3.6"/>
	<rect x="839.3" y="421.9" class="st1" width="70.9" height="3.6"/>
	<path class="st5" d="M271.5,281.1H268c-0.8,0-1.4-0.6-1.4-1.4v0v-3.5c0.1-1.2-0.8-2.2-2-2.3c-1.2-0.1-2.2,0.8-2.3,2
		c0,0.1,0,0.2,0,0.3v3.5c0,0.8-0.6,1.4-1.4,1.4h0h-3.5c-1.2-0.1-2.2,0.8-2.3,2c-0.1,1.2,0.8,2.2,2,2.3c0.1,0,0.2,0,0.3,0h3.5
		c0.8,0,1.4,0.6,1.4,1.4v3.5c0.1,1.2,1.1,2,2.3,2c1.1-0.1,1.9-0.9,2-2v-3.5c0-0.8,0.6-1.4,1.4-1.4h3.5c1.2-0.1,2-1.1,2-2.3
		C273.4,282,272.5,281.2,271.5,281.1z"/>
	<path class="st5" d="M587.5,132.5h-3.9c-0.9,0-1.6-0.7-1.6-1.6v-3.9c0.1-1.3-0.9-2.4-2.2-2.5c-1.3-0.1-2.4,0.9-2.5,2.2
		c0,0.1,0,0.2,0,0.3v3.9c0,0.9-0.7,1.6-1.6,1.6H572c-1.3,0-2.3,1-2.3,2.3s1,2.3,2.3,2.3h3.9c0.9,0,1.6,0.7,1.6,1.6v3.9
		c0.1,1.3,1.2,2.3,2.5,2.2c1.2-0.1,2.1-1,2.2-2.2v-3.9c0-0.9,0.7-1.6,1.6-1.6h3.9c1.3,0,2.3-1,2.3-2.3S588.8,132.5,587.5,132.5z"/>
	<line class="st21" x1="173" y1="243" x2="173" y2="247.6"/>
	<line class="st21" x1="173" y1="260.1" x2="173" y2="264.7"/>
	<line class="st21" x1="162.1" y1="253.8" x2="166.8" y2="253.8"/>
	<line class="st21" x1="179.2" y1="253.8" x2="183.9" y2="253.8"/>
	<line class="st21" x1="888.1" y1="211.9" x2="888.1" y2="216.6"/>
	<line class="st21" x1="888.1" y1="229" x2="888.1" y2="233.7"/>
	<line class="st21" x1="877.2" y1="222.8" x2="881.9" y2="222.8"/>
	<line class="st21" x1="894.3" y1="222.8" x2="898.9" y2="222.8"/>
	<line class="st21" x1="801.2" y1="270.4" x2="797.9" y2="274.1"/>
	<line class="st21" x1="787.9" y1="269" x2="790.3" y2="273.3"/>
	<line class="st21" x1="782.4" y1="281.3" x2="787.2" y2="280.3"/>
	<line class="st21" x1="792.4" y1="290.3" x2="792.9" y2="285.4"/>
	<line class="st21" x1="804" y1="283.6" x2="799.5" y2="281.6"/>
	<line class="st21" x1="477" y1="63" x2="477" y2="67.9"/>
	<line class="st21" x1="466.2" y1="70.9" x2="470.8" y2="72.5"/>
	<line class="st21" x1="470.3" y1="83.7" x2="473.2" y2="79.8"/>
	<line class="st21" x1="483.8" y1="83.7" x2="480.9" y2="79.8"/>
	<line class="st21" x1="487.9" y1="70.9" x2="483.3" y2="72.5"/>
	<path class="st21" d="M797.8,185.1c-6.2,0-11.3-5-11.3-11.3s5-11.3,11.3-11.3c6.2,0,11.3,5,11.3,11.3"/>
	<path class="st21" d="M347,103.4c-4.3,0-7.8-3.5-7.8-7.8c0-4.3,3.5-7.8,7.8-7.8s7.8,3.5,7.8,7.8"/>
	<path class="st5" d="M945.4,303.5L945.4,303.5c-2.8-0.6-4.9-2.8-5.6-5.6c-0.3-1.2-1.4-1.9-2.6-1.6c-0.8,0.2-1.4,0.8-1.6,1.6
		c-0.6,2.8-2.8,4.9-5.6,5.6c-1.2,0.3-1.9,1.4-1.6,2.6c0.2,0.8,0.8,1.4,1.6,1.6c2.8,0.6,4.9,2.8,5.6,5.6c0.3,1.2,1.4,1.9,2.6,1.6
		c0.8-0.2,1.4-0.8,1.6-1.6c0.6-2.8,2.8-4.9,5.6-5.6c1.2-0.3,1.9-1.4,1.6-2.6C946.9,304.3,946.2,303.7,945.4,303.5z"/>
	<path class="st5" d="M149,367.8L149,367.8c-1.5-2.4-1.4-5.5,0.1-7.9c0.6-1,0.3-2.3-0.7-3c-0.7-0.4-1.5-0.4-2.2,0
		c-2.4,1.5-5.5,1.5-7.9-0.1c-1-0.6-2.3-0.3-3,0.7c-0.4,0.7-0.4,1.5,0,2.2c1.5,2.4,1.4,5.5-0.1,7.9c-0.6,1-0.3,2.3,0.7,3
		c0.7,0.4,1.5,0.4,2.2,0c2.4-1.5,5.5-1.4,7.9,0.1c1,0.6,2.3,0.3,3-0.7C149.4,369.4,149.4,368.5,149,367.8z"/>
	<polygon class="st17" points="193,419.6 168.7,419.6 174.5,376.9 187.1,376.9 	"/>
	<polygon class="st1" points="193,419.6 168.7,419.6 174.5,376.9 187.1,376.9 	"/>
	<rect x="160.9" y="419.6" class="st12" width="39.8" height="5.8"/>
	<rect x="160.9" y="419.6" class="st4" width="39.8" height="5.8"/>
	<polygon class="st5" points="170.6,406 191.1,406 189,390.5 172.7,390.5 	"/>
	<polygon class="st11" points="170.6,406 191.1,406 189,390.5 172.7,390.5 	"/>
	<rect x="340.4" y="167.2" class="st5" width="310.2" height="176"/>
	<rect x="340.4" y="167.2" class="st10" width="310.2" height="25"/>
	<path class="st22" d="M485.5,339H381.2c-1.3,0-2.3-1-2.3-2.3v-35.8c0-1.3,1-2.3,2.3-2.3h104.4c1.3,0,2.3,1,2.3,2.3v35.8
		C487.9,338,486.8,339,485.5,339z"/>
	<path class="st5" d="M411.2,319.4c0,6.1-4.7,11-10.5,11s-10.5-4.9-10.5-11c0-6.1,4.7-11,10.5-11S411.2,313.3,411.2,319.4z"/>
	<line class="st23" x1="420" y1="320.6" x2="475.2" y2="320.6"/>
	<line class="st23" x1="420" y1="313.1" x2="446.5" y2="313.1"/>
	<line class="st23" x1="420" y1="327.5" x2="475.2" y2="327.5"/>
	<path class="st24" d="M645.6,224.4v-5.5c0-3.5-2.7-6.3-6-6.3H524.8c-3.3,0-6,2.8-6,6.3v53.9L645.6,224.4z"/>
	<polygon class="st24" points="582.2,261.3 560.7,270.3 542.5,222.6 564,213.6 	"/>
	<path class="st25" d="M640.4,312.7H524c-2.9,0-5.2-2.3-5.2-5.2v-89.6c0-2.9,2.3-5.2,5.2-5.2h116.4c2.9,0,5.2,2.3,5.2,5.2v89.6
		C645.6,310.3,643.3,312.7,640.4,312.7z"/>
	<polygon class="st24" points="574.3,278.7 552.8,287.7 534.6,240 556.1,231 	"/>
	<polygon class="st24" points="557.3,271.7 535.8,280.7 527.3,258.2 548.8,249.2 	"/>
	<polygon class="st24" points="643.4,251.5 621.9,260.5 609.7,228.4 631.2,219.4 	"/>
	<rect x="379.2" y="212.6" class="st10" width="108.7" height="16.5"/>
	<path class="st26" d="M485.5,288.2H381.2c-1.3,0-2.3-1-2.3-2.3v-35.8c0-1.3,1-2.3,2.3-2.3h104.4c1.3,0,2.3,1,2.3,2.3v35.8
		C487.9,287.2,486.8,288.2,485.5,288.2z"/>
	<ellipse class="st27" cx="620.8" cy="181" rx="2.5" ry="2.6"/>
	<path class="st28" d="M631.7,181c0,1.5-1.1,2.6-2.5,2.6c-1.4,0-2.5-1.2-2.5-2.6s1.1-2.6,2.5-2.6C630.6,178.3,631.7,179.5,631.7,181
		z"/>
	<ellipse class="st22" cx="637.6" cy="181" rx="2.5" ry="2.6"/>
	<path class="st5" d="M607,185.3H352.3c-2.7,0-5-2.3-5-5.2s2.2-5.2,5-5.2H607c2.7,0,5,2.3,5,5.2S609.8,185.3,607,185.3z"/>
	<path class="st22" d="M444.7,288.2H340.4c-1.3,0-2.3-1-2.3-2.3v-35.8c0-1.3,1-2.3,2.3-2.3h104.4c1.3,0,2.3,1,2.3,2.3v35.8
		C447.1,287.2,446,288.2,444.7,288.2z"/>
	<ellipse class="st5" cx="359.9" cy="268.6" rx="10.5" ry="11"/>
	<line class="st23" x1="379.2" y1="269.7" x2="434.4" y2="269.7"/>
	<line class="st23" x1="379.2" y1="262.3" x2="405.6" y2="262.3"/>
	<line class="st23" x1="379.2" y1="276.7" x2="434.4" y2="276.7"/>
	<path class="st27" d="M326.5,418.5c0,0,6.8,2,10.2,4c2.7,1.6,3,2.9-0.3,2.9c-4.2,0-9.3-0.1-12.3-0.6c-2-0.3-1.2-5.4-0.9-6.2
		L326.5,418.5z"/>
	<polygon class="st29" points="325.9,418.5 326.6,415.7 323,416.1 323.2,418.5 	"/>
	<path class="st22" d="M338.7,424.7c-3.7-0.1-11.4-0.5-13.5-1c-1.2-0.3-2-0.8-2.5-1.4c0.1,1.2,0.4,2.3,1.3,2.4
		c3,0.5,8.1,0.6,12.3,0.6C337.8,425.3,338.5,425.1,338.7,424.7z"/>
	<path class="st30" d="M310.3,321.4c0,0-0.9-4.2,6.3-9.8c7.2-5.6,11-9.7,11-9.7l6.8-24.6l2.4,1.2c0,0,0.1,19.3-0.9,25.1
		C334.8,309.2,312.1,334.1,310.3,321.4z"/>
	<path class="st27" d="M328.9,295.8l7.7,1.2l-0.3,6.7c0,0-11.3,18.4-18.6,21.3s-11.7-1.6-9.9-4.8s18.7-18.2,18.7-18.2L328.9,295.8z"
		/>
	<polygon class="st24" points="336.8,298.7 337.4,294.8 328.2,293.2 327.6,297.2 	"/>
	<path class="st30" d="M336.8,284c0,0-4.5-11.4-3.1-12.7c0,0,4.2,7.4,5.4,10.5"/>
	<path class="st24" d="M284.2,411.5c0,0,4.8,5.5,6.7,9c1.5,2.8,1.1,4.1-1.7,2.3c-3.6-2.3-7.9-5.2-10.2-7.2c-1.6-1.4,1.7-5.2,2.4-5.8
		L284.2,411.5z"/>
	<polygon class="st29" points="283.7,411.1 285.7,409.2 282.4,407.6 281.4,409.7 	"/>
	<path class="st22" d="M324.2,350.1l-14-8.2c0,0,2.4,31,11.3,44.7c0,0,0.1,24.9,1.6,30.3l3.3-0.1c0,0,5-28.4,4.6-32.9
		C330.1,375.6,329.3,363.6,324.2,350.1z"/>
	<path class="st31" d="M309.3,293c0,0-5.6,2.9-6.1,13.7c-0.4,10.8-2.2,11.2-2.2,11.2s7.6,4.6,16.1,0L309.3,293z"/>
	<path class="st29" d="M316.1,294c2.3,2.2,3.3,5.7,3.5,9c0.1,3.6-5.1,4.1-8.1,2.3c-2.6-1.5-4.5-5-4-8
		C308.1,293.5,313.1,291.1,316.1,294z"/>
	<path class="st29" d="M313,298.4l-5.5,0.9l2.1,14c0.3,2,2.1,3.4,4,3.1c2.1-0.3,3.4-2.5,2.9-4.6L313,298.4z"/>
	<path class="st31" d="M313.6,293.3c0,0,1.4,7.8-6.1,9.8c-5.2,1.3-5.1-12.3,2.3-12.6c10.4-0.4,8,5.9,8,5.9S315.3,292.5,313.6,293.3z
		"/>
	<polygon class="st30" points="315.3,307.4 311.1,305.5 315,306.2 	"/>
	<path class="st22" d="M321.6,343.7l-17.1,4.8c0,0-4.8,6.8-3,33.4c0,0-14.9,13.1-19.1,25.9l2.8,1.9c0,0,21-19.7,24-23
		C312.6,382.7,319.5,369.4,321.6,343.7z"/>
	<path class="st24" d="M319.8,313.2c-0.4-1.6-1.5-2.9-2.9-3.5c-3.2-1.2-10.9-1.3-10.9,9.6c-0.1,21.4-1.4,29.1-1.4,29.1
		s4.1,3.7,19.7,1.7l-2.1-13.5l1.8-4.2c1.2-3.3,1.1-7-0.3-10.2L319.8,313.2z"/>
	<path class="st29" d="M313.4,322.2c0,0-0.9-4.2,6.3-9.8s11-9.7,11-9.7l6.8-24.6l2.4,1.2c0,0,0.1,19.3-0.9,25.1
		C338,310.1,315.3,334.9,313.4,322.2z"/>
	<path class="st29" d="M337,280.4c0,0-1.6-6.9-0.3-8.3c0,0,1.3,2.9,2.5,6c0.4,1,4.4,4,2.3,3.7C339.5,281.5,337,280.4,337,280.4z"/>
	<path class="st29" d="M317.1,295.3c0,0,1.7,1.9,3.1,2.2c0,0-0.3,1.3-1.3,1.9L317.1,295.3z"/>
	<path class="st22" d="M291.5,423.5c-3.1-2.1-9.5-6.7-11-8.2c-0.9-0.9-1.3-1.8-1.5-2.6c-0.5,1.1-0.8,2.2-0.1,2.8
		c2.3,2.1,6.6,4.9,10.2,7.2C290.4,423.5,291.2,423.7,291.5,423.5z"/>
	<path class="st29" d="M281.6,409.9c0,0,3.7,6.8,5.4,5l-2.8-4.3L281.6,409.9z"/>
	<path class="st29" d="M323.6,418.4c0,0,6.6,3.8,7,1.4l-4.6-2L323.6,418.4z"/>
	<path class="st24" d="M332.6,296.1l7,1.4l-0.4,8.5c0,0-10.5,16.5-17.8,19.4c-7.3,2.9-11.7-1.6-9.9-4.8c1.8-3.2,18.7-18.2,18.7-18.2
		L332.6,296.1z"/>
	<polygon class="st24" points="340.5,299 341.1,295.1 331.9,293.5 331.3,297.5 	"/>
	<path class="st22" d="M324.2,350.1l1.8,5.4l-11.8,13.6l1.1-18.4C315.3,350.7,319.1,350.9,324.2,350.1z"/>
	<path class="st32" d="M310.5,379.9c-2.4,2.6-3.2,3.8-3.5,5.3c-0.3,1.2,0,1.4-0.3,2.2c-0.9,2.1-3.5,1.6-6.6,3.1
		c-2.3,1.1-3.8,2.9-6.8,6.4c-1.5,1.8-1.4,1.9-3.8,5.1c-2.9,3.8-4.7,5.8-5.5,7l1.2,0.8c0,0,21-19.7,24-23c1.6-1.8,3.8-5.5,6-11.3
		C314.7,375.3,313.3,376.9,310.5,379.9z"/>
	<rect x="321.9" y="414.8" class="st22" width="5.5" height="2.3"/>
	<polygon class="st22" points="280.8,407.9 285.6,410.8 286.7,408.9 281.9,406 	"/>
	<path class="st24" d="M303,301.7l12.6-10.4c-2.8-3.6-7.8-4.3-11.3-1.4C300.9,292.8,300.3,298.1,303,301.7"/>
	<path class="st27" d="M307.1,288.4c-1,0.3-1.9,0.8-2.7,1.5c-3.5,2.9-4.1,8.2-1.3,11.8l3.3-2.7C304.1,295.7,304.5,291.3,307.1,288.4
		z"/>
	<polygon class="st27" points="303.6,302.5 302.2,300.5 317.2,288.9 318.5,290.8 	"/>
	<path class="st22" d="M324,332.4c1-2.8,1.1-5.9,0.2-8.7c-4.8,1.8-8.8,1.5-11.9,0.5c-2.6-9.7,1.5-14,2.5-14.9
		c-1-0.1-2.1-0.1-3.3,0.3c-1.6,2.4-3.3,6.8-1.9,13.6c-2.4-1.2-3.7-2.6-3.7-2.6l0,0c-0.2,20.5-1.9,28.8-1.9,28.8s4.6,2.8,20.2,0.7
		l-2.1-13.5L324,332.4z"/>
	<path class="st32" d="M331,384c-0.9-8.3-1.7-20.3-6.8-33.9l-2.1-13.5l1.8-4.2c1-2.8,1.1-5.9,0.2-8.7c-0.8,0.3-1.6,0.5-2.4,0.7
		c0.2,2.4,0.3,5.5-1.2,8.9c-0.5,1.1-1.3,2.5-1.7,4.8c-0.4,2.7,0.1,4.8,0.4,6.1c1.8,7.2,3.5,12.3,3.5,12.3c2.4,7.2,3.7,10.8,3.7,12.6
		c0.2,6.6-2.6,10.2-0.2,13.6c1.2,1.6,2.8,2.1,2.9,3.9c0.1,1.7-1.3,2.2-2.3,4.3c-1.3,2.9-0.1,4.9,0,9.1c0.1,4.2-1,4.7-1.4,9.3
		c-0.3,2.5-0.2,5.2,0,7.6l0.9,0C326.4,416.9,331.4,388.5,331,384z"/>
	<polygon class="st28" points="414.9,422.8 387.8,422.8 396.6,376.1 406.1,376.1 	"/>
	<rect x="381.4" y="420.4" class="st28" width="38.6" height="4.8"/>
	<polygon class="st28" points="414.9,422.8 387.8,422.8 396.6,376.1 406.1,376.1 	"/>
	<polygon class="st5" points="392.9,395.9 409.8,395.9 408.4,388.6 394.3,388.6 	"/>
	<polygon class="st5" points="389.7,413 413,413 411.6,405.7 391.1,405.7 	"/>
	<path class="st22" d="M704.9,414.9c0,0-10.6,6.1-14.1,6.1s-0.9,1.6,2.9,2c3,0.3,9-0.6,12.5-1.3c0.3-0.1,1.1-1,1.1-1
		c0.2,0.9,0.2,0.9,0.2,0.9c0.3,0.1,1.8-0.2,1.8-0.2c0.1-1.9-0.7-6.6-0.7-6.6L704.9,414.9z"/>
	<polygon class="st33" points="704.9,414.9 705,411.9 708.8,412.1 708.7,414.8 	"/>
	<path class="st22" d="M704.8,326l12.5,2.2c0,0-3.8,35.1-7.8,48.7c0,0,2.6,23.5-0.2,36.2l-5,0.2c0,0-4.2-30-5.4-35.1
		C697.6,372.3,699.3,357.6,704.8,326z"/>
	<polygon class="st22" points="703.3,410.5 703.7,413.9 709.9,413.8 710.2,410.7 	"/>
	<path class="st22" d="M719.7,416.1c0,0-10.6,6.1-14.1,6.1c-3.5,0-0.9,1.6,2.9,2c3,0.3,9-0.6,12.5-1.3c0.3-0.1,1.1-1,1.1-1
		c0.2,0.9,0.2,0.9,0.2,0.9c0.3,0.1,1.8-0.2,1.8-0.2c0.1-1.9-0.7-6.6-0.7-6.6L719.7,416.1z"/>
	<polygon class="st33" points="719.7,416.1 719.8,413.1 723.6,413.3 723.5,416 	"/>
	<path class="st22" d="M710.9,328.1l13.3,10.8c0,0,4.4,6.8-2.3,38.5c0,0,5.8,17.5,2.1,36.9l-4.9,0.8c0,0-5.9-32.3-7.6-37.2
		C709.5,372,707.9,355.6,710.9,328.1z"/>
	<polygon class="st22" points="717.8,412 718.4,415.4 724.6,414.7 724.7,411.6 	"/>
	<polygon class="st22" points="709.9,338.7 702.7,338.5 701.5,345.8 712,364.5 	"/>
	<path class="st24" d="M717.6,299.7c0,0-4.9-4.7-10.9,4.7c-6,9.4-9.9,13.8-9.9,13.8L673.9,305l-2.4,5.1c0,0,20.5,24.6,27.1,23
		C705.1,331.4,732.3,301.2,717.6,299.7"/>
	<path class="st33" d="M671.7,310.2c0,0-11-8.9-5.8-7.3c2.4,0.7,4.5,2.6,5.3,1.8c0.8-0.8-0.9-1.5-1.2-3.2c-0.3-1.5,4.9,4.2,4.9,4.2
		L671.7,310.2z"/>
	<polyline class="st34" points="679.4,312.7 678.1,316.7 688.8,321.9 679.4,312.7 	"/>
	<polyline class="st34" points="707.4,316.4 696,327.2 701.7,328.8 707.4,319.2 707.4,316.4 	"/>
	<polygon class="st24" points="670.2,310.1 672.6,311.9 676.9,306.4 674.6,304.5 	"/>
	<path class="st24" d="M712.8,295.9c3.8-1.5,14.6-2.4,16.3,7.2c1.5,8.8-1.7,16.5-2.9,22.8c-0.9,4.5-1.4,11.2-1.4,11.2
		s-7.1,8.8-20.2,4.8l0.8-15l0.9-8.3c-0.7-9.4-0.5-10.6,1.1-15.3c0.7-2,3.1-6.2,4.9-7.2C712.5,296,712.6,296,712.8,295.9z"/>
	<path class="st22" d="M707,311.3l-1.1-0.9c0-6,2.4-14.3,11.6-15.1h0.3C705.9,297.7,707,311.1,707,311.3z"/>
	<path class="st33" d="M716.2,280.2l6.8,0l-0.8,15c0,0.4-0.1,1-0.5,1.2c-2.8,2.1-5.2,1.1-5.2,1.1c-2.3-0.6-0.6-1.7-0.3-4.4
		L716.2,280.2"/>
	<path class="st33" d="M715.4,276.9c-3.3,4.4-3.7,8.2-3.6,12.2c0.1,5.1,6.6,5.1,10.7,2.5c3.6-2.4,5.3-6.7,4.4-10.8
		C725.7,275.3,718.9,272.1,715.4,276.9"/>
	<path class="st35" d="M716.2,293.3L716.2,293.3l-0.1,0.6l0,0C716.2,293.6,716.2,293.5,716.2,293.3"/>
	<path d="M716.1,293.8L716.1,293.8l-0.2,0.7l0,0C716,294.3,716.1,294.1,716.1,293.8"/>
	<path class="st36" d="M719.8,292.9l-0.7,0.1c-0.8,0.2-1.6,0.3-2.4,0.3c-0.1,0-0.3,0-0.4,0l-0.1,0c0,0.2-0.1,0.4-0.1,0.5
		c-0.1,0.3-0.1,0.5-0.2,0.7L719.8,292.9"/>
	<path class="st36" d="M719.1,293l-2.8,0.3c0.1,0,0.3,0,0.4,0C717.5,293.3,718.3,293.2,719.1,293"/>
	<path class="st33" d="M713.1,281.7c0,0-1.4,1.2-2.8,3.1c0,0,0.6,1.3,1.8,1.7L713.1,281.7z"/>
	<path class="st31" d="M727.6,279.9c-0.3-6.9-11.7-6.8-13.1-5.7c-2.7,2.2-0.5,4.6-0.5,4.6l0.6-0.4c0.1,0,0.2-0.1,0.3-0.1
		c1.7,0.3,7.6,1.5,5.8,6.4c-0.5,1.2,0.5,1.8,1.8,1.9c0.1,1.5,0.1,3.1-0.1,4.7C722.1,292.3,728,291.1,727.6,279.9z"/>
	<path class="st22" d="M679.8,318.6l-1.6,1.9l-22.6-21c-0.4-0.4-0.4-1-0.1-1.4l1-1.2L679.8,318.6z"/>
	<path class="st5" d="M678.8,311.6c0.7,0.6,1,1.5,1,2.4l0,4.5L656.5,297l6.7,1.1c0.8,0.1,1.5,0.5,2.1,1L678.8,311.6z"/>
	<path class="st33" d="M718.5,287.5c0.5,0.8,1.9,0.9,3,0.1c1.1-0.8,1.6-2.1,1.1-3c-0.5-0.8-1.9-0.9-3-0.1
		C718.5,285.3,718,286.6,718.5,287.5z"/>
	<path class="st22" d="M724.8,340.9c0,0,0.4-10.6,1.3-15c0.5-2.5,1.3-5.2,2-8.2c-8.5-0.8-16.7-4.4-22.3-7.5
		c-0.1,1.9,0.1,4.4,0.4,8.4l-1.7,8.3l-2.4,15.2C715.3,346,724.8,340.9,724.8,340.9z"/>
	<path class="st22" d="M720.6,350.5l-4.4-1.3c5.7-22.1,8.5-42.8,6.1-45.2c-1.6-1.5-2.6-1.4-3.2-1.2c-3.4,1-6.6,8.6-7.6,12.2
		l-3.5-1.4c0.4-1.4,3.2-13.5,9.9-15.4c1.8-0.5,4.5-0.5,7.5,2.3C731.3,306.2,724,337.4,720.6,350.5z"/>
	<path class="st24" d="M719.4,301.3c0,0-4.5,0-9.3,10.1c-4.9,10.1-7.4,12.8-7.4,12.8l-22.9-10.6l-4,5.4c0,0,24.5,21.9,30.2,18.2
		C716.7,330.2,734.2,300.9,719.4,301.3z"/>
	<path class="st33" d="M675.8,318.9c0,0-5.2,0.5-6.5-2.8c-0.8-2.1-3.6-6.7-0.8-4.6c1.7,1.3,4.1,3.8,4.8,2.8c0.7-1-2.9-1.4-2-3.4
		l6.1,3.6L675.8,318.9z"/>
	<polygon class="st24" points="674,320.3 676.6,321.7 681,313.7 678.4,312.3 	"/>
	<path class="st24" d="M728.4,282.2l-14.3-7.6c2-4.1,6.9-5.8,10.8-3.7C728.8,273,730.4,278,728.4,282.2"/>
	<path class="st27" d="M722,270c1,0.1,2,0.4,2.9,0.9c4,2.1,5.5,7.2,3.5,11.3l-3.7-2C726.2,276.5,725,272.3,722,270z"/>
	<polygon class="st27" points="728,283 729,280.8 712.1,272.5 711.1,274.6 	"/>
	<polygon class="st28" points="690.1,422.8 663.1,422.8 671.9,376.1 681.3,376.1 	"/>
	<rect x="656.7" y="420.4" class="st28" width="38.6" height="4.8"/>
	<polygon class="st28" points="690.1,422.8 663.1,422.8 671.9,376.1 681.3,376.1 	"/>
	<polygon class="st5" points="668.2,395.9 685.1,395.9 683.7,388.6 669.5,388.6 	"/>
	<polygon class="st5" points="664.9,413 688.3,413 686.9,405.7 666.3,405.7 	"/>
	<path class="st22" d="M487.9,429.3c0.5,0,1-0.4,1.2-1l20.5-104.5c0.1-0.7-0.3-1.3-0.9-1.5c-0.6-0.1-1.3,0.3-1.4,1l-20.5,104.5
		c-0.1,0.7,0.3,1.3,0.9,1.5L487.9,429.3z"/>
	<path class="st32" d="M507.4,333.9H537c0.7,0,1.2-0.6,1.2-1.2c0-0.7-0.5-1.2-1.2-1.2h-29.5c-0.7,0-1.2,0.6-1.2,1.2
		C506.3,333.3,506.8,333.9,507.4,333.9z"/>
	<path class="st32" d="M504.6,347.3h29.5c0.7,0,1.2-0.6,1.2-1.2s-0.5-1.2-1.2-1.2h-29.5c-0.7,0-1.2,0.6-1.2,1.2
		S503.9,347.3,504.6,347.3z"/>
	<path class="st32" d="M502.1,360.8h29.5c0.7,0,1.2-0.6,1.2-1.2c0-0.7-0.5-1.2-1.2-1.2h-29.5c-0.7,0-1.2,0.6-1.2,1.2
		C500.9,360.2,501.4,360.8,502.1,360.8z"/>
	<path class="st32" d="M499.4,374.2h29.5c0.7,0,1.2-0.6,1.2-1.2c0-0.7-0.5-1.2-1.2-1.2h-29.5c-0.7,0-1.2,0.6-1.2,1.2
		C498.2,373.7,498.8,374.2,499.4,374.2z"/>
	<path class="st32" d="M496.9,387.7h29.5c0.7,0,1.2-0.6,1.2-1.2s-0.5-1.2-1.2-1.2h-29.5c-0.7,0-1.2,0.6-1.2,1.2
		S496.2,387.7,496.9,387.7z"/>
	<path class="st32" d="M494.4,401.1h29.5c0.7,0,1.2-0.6,1.2-1.2c0-0.7-0.5-1.2-1.2-1.2h-29.5c-0.7,0-1.2,0.6-1.2,1.2
		C493.2,400.5,493.7,401.1,494.4,401.1z"/>
	<path class="st32" d="M491.8,414.5h29.5c0.7,0,1.2-0.6,1.2-1.2c0-0.7-0.5-1.2-1.2-1.2h-29.5c-0.7,0-1.2,0.6-1.2,1.2
		C490.7,414,491.2,414.5,491.8,414.5z"/>
	<path class="st22" d="M519.5,429.3c0.5,0,1-0.4,1.2-1l20.5-104.5c0.1-0.7-0.3-1.3-0.9-1.5c-0.6-0.1-1.3,0.3-1.4,1l-20.5,104.5
		c-0.1,0.7,0.3,1.3,0.9,1.5L519.5,429.3z"/>
	<line class="st37" x1="616.8" y1="258.7" x2="622.9" y2="274.8"/>
	<polyline class="st38" points="600.9,254.8 602.9,258.4 616.6,257.9 626.6,248.6 625.1,243.3 	"/>
	<line class="st38" x1="626.3" y1="242.3" x2="599.6" y2="254.6"/>
	<path class="st27" d="M622.5,249.6l-15.6,6.8c-2.2,1-4.9-0.1-5.8-2.5c-0.9-2.4,0.1-5.1,2.4-6.1l15.6-6.8c2.2-1,4.9,0.1,5.8,2.5
		C625.8,245.9,624.8,248.6,622.5,249.6z"/>
	<path class="st24" d="M606.1,254.6l15.6-6.8c2-0.9,3.1-3.2,2.6-5.4c-1.2-1.5-3.3-2.1-5.1-1.3l-15.6,6.8c-2,0.9-3.1,3.2-2.6,5.4
		C602.2,254.8,604.2,255.4,606.1,254.6z"/>
	<polygon class="st22" points="602.7,404.1 582.4,404.1 578.7,375.1 606.4,375.1 	"/>
	<path class="st39" d="M580.5,375.9c0-7,5.4-12.6,12-12.6s12,5.6,12,12.6"/>
	<path class="st24" d="M600.7,376.1c0.2-0.2,0.2-0.5,0.2-1h-16.7c-0.3,2,0.5,4.1,1.1,4.2c0.8,0.1,1.4-2.9,2.4-2.9
		c0.9,0.1,2.1,2.1,1.2,7.1c-0.7,4.4,1.8,5.3,2.1,5.2c2.6-0.5,0.9-10.5,3.2-11.2c0.9-0.3,1.7,1.1,2.9,0.6c1-0.4,1-1.6,2.2-1.9
		C600.1,376,600.5,376.4,600.7,376.1z"/>
	<path class="st24" d="M618.2,349.1l13,2.4l9.8-5.3c0,0-1-7.2-0.9-9.3c0.1-4.9,2.4-15.8-0.9-23.6c-2.4-5.7-6.9-3.1-12.7-1.2
		l-6.4,0.7c0,0-10.3-6.5-3.1,23.6C617.8,339.8,618.2,349.1,618.2,349.1z"/>
	<path class="st29" d="M623.6,291.3c-2.6,2.7-3.6,7-3.6,10.9c0.1,4.3,6.4,4.5,9.9,2.2c3.1-2,5.1-6.3,4.3-9.8
		C633.2,290.1,627,287.6,623.6,291.3z"/>
	<path class="st29" d="M622.3,293.2c0,0-1.6,1.9-2.9,2.3c0,0,0.3,1.2,1.4,1.8L622.3,293.2z"/>
	<path class="st24" d="M614.4,315.4l-3.3,13.2l-2.1,6.8l-12.6,23.3l3.9,2.8l16-23.4l2.4-7.3l9.5-19.3c0.8-2.3-3.9-2.2-6-3
		S616,310.6,614.4,315.4z"/>
	<path class="st29" d="M596.9,357.7c0,0-4.8,5.5-1.5,5.2c2.3-0.3,0.6-0.6,0.6-0.6s-3.3,3-1.8,2.9c1.4-0.1,4.5,1.3,5.2-0.8
		c0.9-2.5,1.3-4,1.3-4L596.9,357.7z"/>
	<polygon class="st24" points="603.1,359.1 601.4,361.8 595.8,357.7 597.5,355.1 	"/>
	<polygon class="st24" points="629.2,299.2 620.6,274 624.9,272 636.7,298 637.9,305.6 630.1,306.3 	"/>
	<path class="st24" d="M636.6,323.9c-2.3,0.4-4.4-1.2-4.8-3.6l-1.8-14l7.9-0.7l2.5,12.2C640.8,320.2,638.9,323.5,636.6,323.9z"/>
	<path class="st29" d="M621.9,274.4c0,0-4.9-5.5-2.9-6.6l1.5,2.6c0,0-1.8-6.7-0.4-6.4c1.4,0.3,4.5,2.2,4.2,4.4
		c-0.4,2.6-0.6,4.8-0.6,4.8L621.9,274.4z"/>
	<polygon class="st24" points="621.1,276.8 619.9,273.8 625.4,271.5 626.6,274.5 	"/>
	<polygon class="st29" points="622.6,302.3 623.2,316.5 630.6,314 627.1,301.1 	"/>
	<path class="st22" d="M625,342.8c0.4-16.3-1.6-29.1-2.8-34.3c-0.9-0.3-2.1,0-3.4,0.9c1.2,4.9,3.2,16.6,2.7,33.4L625,342.8z"/>
	<path class="st22" d="M643.2,358.2c1.6-12.3-2.9-20.7-2.9-20.7c-7.6,4.4-22.6,3.4-22.6,3.4l-2.1,20.8l-1.2,23.1
		c0,0,0.5,12.9,5.7,30.1l5.9-1c0,0,1.1-12.2-0.9-29.6c0,0,2.9-12.4,4.6-18.8c0.1-0.4,1.8-1.1,1.9-1.5
		C631.5,364.1,640.2,363.6,643.2,358.2z"/>
	<path class="st22" d="M633.3,414.8l5.1-0.8c0,0,2.4-12.6,0-29.2c0,0,4.1-9.4,4.4-24.4c0.1-0.7,0.2-1.5,0.3-2.2
		c-2.9,5.4-11.7,5.9-11.7,5.9l-3.8,21.8C627.7,385.9,629.3,396.4,633.3,414.8z"/>
	<path class="st32" d="M634.4,363.7c-1.7,0.4-2.9,0.4-2.9,0.4l-3.8,21.8c0,0,1.5,10.4,5.5,28.5c0.6-0.4,1.1-0.9,1.3-1.5
		c0.5-1.3-0.3-2.1-1.2-6.1c-0.6-2.5-0.3-2.1-1.2-7.1c-0.7-3.9-1.1-5.8-1.4-6.7c-1-2.6-2-3.8-1.4-5.2c0.5-1.4,1.8-1.6,1.9-2.8
		c0-1-0.9-1.4-1.4-2.4c-1.2-2.3,1.2-5.8,1.9-6.9C632.8,373.4,634.2,369.7,634.4,363.7z"/>
	<polygon class="st29" points="620,415 621.1,418.7 625.2,418.4 625.2,414.1 	"/>
	<path class="st24" d="M613.7,424.4c0,0,0-2.5,4.6-3.3c2.4-0.4,1.2-2.3,1.2-2.3l4.5-1.4l-4.3,7.9L613.7,424.4z"/>
	<path class="st22" d="M624.7,417.3c-3,0-2.8,2.7-3.3,4.4c0,0-2.1,3.2-6.7,2.8c1.1,0.2,2.8,0.4,4.2,0.6c1.4,0.2,2.8,0.1,4.2-0.3
		l2.5-0.7c1.5-0.8,3.1-6.7-0.7-6.9L624.7,417.3z"/>
	<path class="st27" d="M614,424.4c0.3,0,0.5,0.1,0.7,0.1C613.8,424.4,613.4,424.3,614,424.4z"/>
	<polygon class="st29" points="633.3,414.8 634.3,418.6 638.4,418.2 638.4,414 	"/>
	<path class="st24" d="M626.9,424.2c0,0,0-2.5,4.6-3.3c2.4-0.4,1.2-2.3,1.2-2.3l4.5-1.4l-4.3,7.9L626.9,424.2z"/>
	<path class="st22" d="M637.9,417.1c-3,0-2.8,2.7-3.3,4.4c0,0-2.1,3.2-6.7,2.8c1.1,0.2,2.8,0.4,4.2,0.6c1.4,0.2,2.8,0.1,4.2-0.3
		l2.5-0.7c1.5-0.8,3.1-6.7-0.7-6.9L637.9,417.1z"/>
	<path class="st27" d="M627.2,424.2c0.3,0,0.5,0.1,0.7,0.1C627,424.2,626.5,424.1,627.2,424.2z"/>
	<polygon class="st22" points="626.6,415.4 619,416.3 618.6,412.9 626.3,412 	"/>
	<polygon class="st22" points="639.8,414.6 632.2,415.5 631.9,412.1 639.5,411.2 	"/>
	<path class="st5" d="M622.5,307.6l-0.1,2.4c0,0,3,1.1,4.9,0.5c1.9-0.6,2.5-2.4,2.5-2.4l-0.6-1.8
		C629.1,306.3,627.4,309.1,622.5,307.6z"/>
	<path class="st31" d="M623.9,287.9c0,0-4.4,4.2,1,8.4c0,0,2,1.5-1,5.2c-0.6,0.8-0.6,1.9,0,2.6c1.8,2.2,5.7,5.4,9.9-1.4
		c1.9-3.2,2.2-6.8,0.6-9c-1.5-2.1-3-3.3-5.3-4.1C626.9,288.8,625.8,289.1,623.9,287.9z"/>
	<path class="st31" d="M624,301.5c-5.2,4.7-4.9,11.1-4.9,12.1c0,5.2,5,9.3,5.1,10.6c0.3,3.3-4.8,10.4-4.1,13.8c1.1,5,9.6,6.9,18,3.2
		c9.6-4.2,10.8-17.6,2.3-26.7c-3.8-4.1-2.5-12-3.3-17.8c-0.4-3.5-1.4,0.2-3-2.4c-2.4-3.9-8.4-5.2-9.3-4c-0.9,1.1,2.9,4,2.1,7.4
		C626.5,299.3,625.9,299.7,624,301.5z"/>
	<path class="st29" d="M626.5,297.6c0.3,0.7,0,1.6-0.9,2.1c-0.8,0.4-1.8,0.2-2.1-0.5s0-1.6,0.9-2.1
		C625.2,296.7,626.2,296.9,626.5,297.6z"/>
	<path class="st24" d="M636.6,299.2L624,288.8c2.8-3.6,7.8-4.3,11.3-1.4C638.8,290.2,639.4,295.5,636.6,299.2"/>
	<path class="st27" d="M632.6,285.9c1,0.3,1.9,0.8,2.7,1.5c3.5,2.9,4.1,8.2,1.3,11.8l-3.3-2.7C635.5,293.2,635.2,288.8,632.6,285.9z
		"/>
	<polygon class="st27" points="636.1,299.9 637.5,298 622.5,286.3 621.1,288.2 	"/>
	<path class="st6" d="M523.5,246.3l-3.4-2.9c0.2-1.8,0.1-3.5-0.1-5.3l3.3-2.9c0.8-0.7,1-1.8,0.6-2.8l-2.4-5.7
		c-0.4-1-1.4-1.6-2.4-1.5l-4.4,0.4c-1.1-1.4-2.4-2.6-3.8-3.7l0.3-4.4c0.1-1-0.6-2-1.5-2.4l-5.8-2.3c-1-0.4-2.1-0.1-2.8,0.7l-2.8,3.4
		c-1.8-0.2-3.5-0.1-5.3,0.1l-2.9-3.3c-0.7-0.8-1.8-1-2.8-0.6l-5.7,2.4c-1,0.4-1.6,1.4-1.5,2.4l0.4,4.4c-1.4,1.1-2.6,2.4-3.7,3.8
		l-4.4-0.3c-1-0.1-2,0.5-2.4,1.5l-2.3,5.8c-0.4,1-0.1,2.1,0.7,2.8l3.4,2.9c-0.2,1.8-0.1,3.5,0.1,5.3l-3.3,2.9
		c-0.8,0.7-1,1.8-0.6,2.8l2.5,5.7c0.4,1,1.4,1.6,2.4,1.5l4.4-0.4c1.1,1.4,2.4,2.6,3.8,3.7l-0.3,4.4c-0.1,1,0.6,2,1.5,2.4l5.8,2.3
		c1,0.4,2.1,0.1,2.8-0.7l2.9-3.4c1.8,0.2,3.5,0.1,5.3-0.1l2.9,3.3c0.7,0.8,1.8,1,2.8,0.6l5.7-2.4c1-0.4,1.6-1.4,1.5-2.4l-0.4-4.4
		c1.4-1.1,2.6-2.4,3.7-3.8l4.4,0.3c1,0.1,2-0.5,2.4-1.5l2.3-5.8C524.6,248.1,524.3,247,523.5,246.3z M495.8,254.3
		c-7.3,0-13.3-5.9-13.3-13.3c0-7.3,5.9-13.3,13.3-13.3c7.3,0,13.3,5.9,13.3,13.3v0C509.1,248.4,503.2,254.3,495.8,254.3z"/>
	<path class="st1" d="M523.5,246.3l-3.4-2.9c0.2-1.8,0.1-3.5-0.1-5.3l3.3-2.9c0.8-0.7,1-1.8,0.6-2.8l-2.4-5.7
		c-0.4-1-1.4-1.6-2.4-1.5l-4.4,0.4c-1.1-1.4-2.4-2.6-3.8-3.7l0.3-4.4c0.1-1-0.6-2-1.5-2.4l-5.8-2.3c-1-0.4-2.1-0.1-2.8,0.7l-2.8,3.4
		c-1.8-0.2-3.5-0.1-5.3,0.1l-2.9-3.3c-0.7-0.8-1.8-1-2.8-0.6l-5.7,2.4c-1,0.4-1.6,1.4-1.5,2.4l0.4,4.4c-1.4,1.1-2.6,2.4-3.7,3.8
		l-4.4-0.3c-1-0.1-2,0.5-2.4,1.5l-2.3,5.8c-0.4,1-0.1,2.1,0.7,2.8l3.4,2.9c-0.2,1.8-0.1,3.5,0.1,5.3l-3.3,2.9
		c-0.8,0.7-1,1.8-0.6,2.8l2.5,5.7c0.4,1,1.4,1.6,2.4,1.5l4.4-0.4c1.1,1.4,2.4,2.6,3.8,3.7l-0.3,4.4c-0.1,1,0.6,2,1.5,2.4l5.8,2.3
		c1,0.4,2.1,0.1,2.8-0.7l2.9-3.4c1.8,0.2,3.5,0.1,5.3-0.1l2.9,3.3c0.7,0.8,1.8,1,2.8,0.6l5.7-2.4c1-0.4,1.6-1.4,1.5-2.4l-0.4-4.4
		c1.4-1.1,2.6-2.4,3.7-3.8l4.4,0.3c1,0.1,2-0.5,2.4-1.5l2.3-5.8C524.6,248.1,524.3,247,523.5,246.3z M495.8,254.3
		c-7.3,0-13.3-5.9-13.3-13.3c0-7.3,5.9-13.3,13.3-13.3c7.3,0,13.3,5.9,13.3,13.3v0C509.1,248.4,503.2,254.3,495.8,254.3z"/>
	<line class="st1" x1="495.7" y1="102.4" x2="495.7" y2="190.6"/>
	<line class="st1" x1="495.7" y1="198.4" x2="495.7" y2="216.8"/>
	<path class="st2" d="M495.7,190.6c2.1,0,3.9,1.7,3.9,3.9c0,2.1-1.7,3.9-3.9,3.9c-2.1,0-3.9-1.7-3.9-3.9
		C491.8,192.4,493.5,190.6,495.7,190.6z"/>
	<path class="st1" d="M495.7,190.6c2.1,0,3.9,1.7,3.9,3.9c0,2.1-1.7,3.9-3.9,3.9c-2.1,0-3.9-1.7-3.9-3.9
		C491.8,192.4,493.5,190.6,495.7,190.6z"/>
</g>
</svg>
