<svg id="Layer_1" data-name="Layer 1" xmlns="http://www.w3.org/2000/svg" viewBox="0 0 691.67 150.78"><defs><style>.cls-1,.cls-2,.cls-9{fill:#4c2a75;}.cls-2{font-size:91.15px;font-family:DAGGERSQUARE;}.cls-3{fill:#510c76;}.cls-4{fill:#85754e;}.cls-5{fill:#fff;}.cls-6,.cls-7{fill:#8a8e8f;}.cls-7{font-size:7.44px;font-family:MyriadPro-Regular, Myriad Pro;}.cls-8{letter-spacing:-0.01em;}.cls-9{font-size:33.62px;font-family:Abel-Regular, Abel;}</style></defs><path class="cls-1" d="M233.56,261.47a9.69,9.69,0,0,1,9.85-10,9.92,9.92,0,0,1-.19,19.83A9.68,9.68,0,0,1,233.56,261.47Z" transform="translate(-79.52 -228.51)"/><path class="cls-1" d="M251.21,315.28a37,37,0,0,0,1.76,4.09v5.28a9.71,9.71,0,0,1-19.41,0V284.46a9.71,9.71,0,0,1,19.41,0v5c-.31.54-.6,1.08-.88,1.64Q246.51,302.33,251.21,315.28Z" transform="translate(-79.52 -228.51)"/><path class="cls-1" d="M312.65,293.12q-4.61-12.67-15.9-17.58h0c-1.27-.53-2.44-.87-3.37-1.17a25.26,25.26,0,0,0-5.5-1.14,35.71,35.71,0,0,0-15.8,2.29q-13.32,4.85-18.78,15.84T252.42,315q4.62,12.68,16,17.47t24.43.05q13.41-4.89,18.92-15.85T312.65,293.12Zm-43.54,34.57a.51.51,0,0,1-.45.27.49.49,0,0,1-.23-.06c-5.59-2.91-9.65-7.72-12.05-14.32s-2.42-13,0-18.85a.49.49,0,0,1,.65-.26.49.49,0,0,1,.27.64c-2.31,5.64-2.29,11.74,0,18.14s6.2,11,11.57,13.77A.51.51,0,0,1,269.11,327.69ZM292,330.05a8.07,8.07,0,0,1-10.31-4.81l-13.45-37a8,8,0,1,1,15.12-5.5l13.45,37A8.07,8.07,0,0,1,292,330.05Zm16.71-16.78a.5.5,0,0,1-.46.3.63.63,0,0,1-.19,0,.51.51,0,0,1-.28-.65c2.3-5.6,2.3-11.66,0-18s-6.22-11-11.59-13.87a.5.5,0,1,1,.47-.88c5.59,2.95,9.65,7.8,12.05,14.41S311.09,307.43,308.7,313.27Z" transform="translate(-79.52 -228.51)"/><text class="cls-2" transform="translate(260.91 103.81)">Networks</text><path class="cls-3" d="M100.33,318a.79.79,0,0,0-.18-.48c-.2-.19-.53-.12-.62-.13a8.46,8.46,0,0,1-5.23-1.8A7,7,0,0,1,91.73,311a7.19,7.19,0,0,1,1.43-5.51,7.39,7.39,0,0,1,4.54-2.78c1-.2,2-.26,3.06-.43a7.74,7.74,0,0,0,6.55-6.82,11.07,11.07,0,0,0-1.49-7c-.94-1.77-1.93-3.51-2.8-5.31a12.33,12.33,0,0,1-1.25-5.17,8,8,0,0,1,1.4-4.78,11.69,11.69,0,0,1,7.71-5,9.47,9.47,0,0,1,7,1.57c1.48,1,2.84,2.16,4.28,3.22a36.43,36.43,0,0,0,3.29,2.28,6.8,6.8,0,0,0,6.67,0,6.06,6.06,0,0,0,3.81-5,35.14,35.14,0,0,0,.07-4.59,11.21,11.21,0,0,1,.42-4.12,6.36,6.36,0,0,1,3.85-4,8,8,0,0,1,6.45.18,6.56,6.56,0,0,1,3.64,5c.12.62.21,1.24.35,1.85a.51.51,0,0,0,.33.31,53.85,53.85,0,0,1,10.29,2.66,48.24,48.24,0,0,1,7.53,3.62,6.19,6.19,0,0,0,.57.3.86.86,0,0,0,.95-.15,15.59,15.59,0,0,1,7.82-3.6c6.27-.92,11.44,1.14,15.55,6a15.18,15.18,0,0,1,3.44,7.78,16.75,16.75,0,0,1-7.53,16.78.52.52,0,0,0-.27.64c.32,1.6.66,3.18.92,4.79.18,1.12.27,2.27.35,3.4a34,34,0,0,1,.15,3.77c-.09,2-.21,4-.48,6-.19,1.47-.45,2.91-.78,4.33-.69,3-8.48,35.49-44.15,35.49-21.05,0-38.8-15-44.24-35.49C100.7,319.53,100.69,319.23,100.33,318Z" transform="translate(-79.52 -228.51)"/><path class="cls-3" d="M102.76,293.71a5.66,5.66,0,0,1-5.67,5.77,5.79,5.79,0,1,1,.16-11.57A5.62,5.62,0,0,1,102.76,293.71Z" transform="translate(-79.52 -228.51)"/><path class="cls-3" d="M135.56,248.5a4.44,4.44,0,0,1,4.69-4.64,4.65,4.65,0,0,1-.13,9.29A4.43,4.43,0,0,1,135.56,248.5Z" transform="translate(-79.52 -228.51)"/><path class="cls-3" d="M105.14,264.11a4.66,4.66,0,0,1-4.56,4.45c-2.09,0-4.33-2.51-4.28-4.59a4.57,4.57,0,0,1,4.63-4.27A4.48,4.48,0,0,1,105.14,264.11Z" transform="translate(-79.52 -228.51)"/><path class="cls-3" d="M79.52,285.12a4.13,4.13,0,1,1,4.19,4.17A4.05,4.05,0,0,1,79.52,285.12Z" transform="translate(-79.52 -228.51)"/><path class="cls-3" d="M124.66,268.5a3.92,3.92,0,0,1,3.83-3.88,3.84,3.84,0,0,1,3.77,4.12,3.77,3.77,0,0,1-3.94,3.61A3.88,3.88,0,0,1,124.66,268.5Z" transform="translate(-79.52 -228.51)"/><path class="cls-3" d="M92.23,254.7a3.6,3.6,0,1,1,3.54-3.59A3.52,3.52,0,0,1,92.23,254.7Z" transform="translate(-79.52 -228.51)"/><path class="cls-3" d="M100.41,234.53a3,3,0,1,1,3-2.9A3,3,0,0,1,100.41,234.53Z" transform="translate(-79.52 -228.51)"/><path class="cls-3" d="M118.5,259a2.91,2.91,0,0,1,3,3,3,3,0,1,1-3-3Z" transform="translate(-79.52 -228.51)"/><path class="cls-3" d="M126.19,245.6a3,3,0,1,1,6,0,3,3,0,1,1-6,0Z" transform="translate(-79.52 -228.51)"/><path class="cls-3" d="M86.06,269.71a3,3,0,1,1,3-3A2.93,2.93,0,0,1,86.06,269.71Z" transform="translate(-79.52 -228.51)"/><path class="cls-3" d="M109.22,251a3,3,0,1,1-3,3A3,3,0,0,1,109.22,251Z" transform="translate(-79.52 -228.51)"/><path class="cls-3" d="M124.8,236.72a3,3,0,1,1,3,3A3,3,0,0,1,124.8,236.72Z" transform="translate(-79.52 -228.51)"/><path class="cls-3" d="M117,237a3,3,0,0,1,0-6,3,3,0,0,1,0,6Z" transform="translate(-79.52 -228.51)"/><path class="cls-3" d="M94.88,274.88a3,3,0,1,1-3,3A3,3,0,0,1,94.88,274.88Z" transform="translate(-79.52 -228.51)"/><path class="cls-3" d="M124.83,257.58a2.53,2.53,0,0,1-2.69-2.72,2.7,2.7,0,0,1,2.56-2.94,2.81,2.81,0,0,1,2.94,2.78C127.53,256.4,126.82,257.45,124.83,257.58Z" transform="translate(-79.52 -228.51)"/><path class="cls-3" d="M120.4,244.88a2.72,2.72,0,0,1-2.74,2.77,2.78,2.78,0,1,1,2.74-2.77Z" transform="translate(-79.52 -228.51)"/><path class="cls-3" d="M105.91,243.91a2.39,2.39,0,0,1-2.44-2.45,2.43,2.43,0,0,1,2.44-2.45,2.49,2.49,0,0,1,2.43,2.33A2.44,2.44,0,0,1,105.91,243.91Z" transform="translate(-79.52 -228.51)"/><path class="cls-4" d="M175.68,276.34a9.38,9.38,0,0,0-3,1.49,12.52,12.52,0,0,0-3,2.7l4.56,2.18s1.06-1,1.39-1.34a6.08,6.08,0,0,1,4-1.68A6.35,6.35,0,0,1,182,280a4.36,4.36,0,0,1,1.83,1.1,6.83,6.83,0,0,1,1.29,1.92c.61,1.52-.5,1.87-.5,1.87a2,2,0,0,0,.75-.4,2.61,2.61,0,0,0,.52-2c-.29-2.28-2.82-4.21-3.08-4.44a8.6,8.6,0,0,0-3.37-1.86A7.09,7.09,0,0,0,175.68,276.34Z" transform="translate(-79.52 -228.51)"/><path class="cls-4" d="M155.8,288.82s.94,3,2,3.63c1.63,1,2.87-.66,3.66-1.5,1.19-1.27,3.9-4.81,3.93-4.84S170,288,170,288s-3.22,3.54-4.87,5.12a12.61,12.61,0,0,1-2,1.68,4.33,4.33,0,0,1-1.84.8c-2.51.38-3.7-1.73-4.26-2.79A14.3,14.3,0,0,1,155.8,288.82Z" transform="translate(-79.52 -228.51)"/><path class="cls-5" d="M120.09,289.58a6.16,6.16,0,0,1,6.27-6.35,6.32,6.32,0,0,1-.12,12.64A6.17,6.17,0,0,1,120.09,289.58Z" transform="translate(-79.52 -228.51)"/><path class="cls-5" d="M131.33,323.86a23.82,23.82,0,0,0,1.12,2.61v3.36a6.18,6.18,0,1,1-12.36,0v-25.6a6.18,6.18,0,1,1,12.36,0v3.17c-.19.34-.38.68-.56,1A18.88,18.88,0,0,0,131.33,323.86Z" transform="translate(-79.52 -228.51)"/><path class="cls-5" d="M170.48,309.74a18.42,18.42,0,0,0-10.13-11.2h0a4.8,4.8,0,0,1-1.38.32,5.29,5.29,0,0,1-4.27-1.79,22.74,22.74,0,0,0-10.07,1.45q-8.48,3.09-12,10.1a18.5,18.5,0,0,0-.55,15.09,18.15,18.15,0,0,0,10.18,11.13q7.23,3.06,15.57,0,8.53-3.12,12.05-10.1A18.24,18.24,0,0,0,170.48,309.74Zm-27.75,22a.3.3,0,0,1-.28.17.28.28,0,0,1-.15,0,16,16,0,0,1-7.68-9.12,16.27,16.27,0,0,1,0-12,.32.32,0,0,1,.42-.17.31.31,0,0,1,.17.41,15.64,15.64,0,0,0,0,11.56,15.4,15.4,0,0,0,7.38,8.77A.32.32,0,0,1,142.73,331.77Zm14.59,1.5a5.13,5.13,0,0,1-6.57-3.06l-8.58-23.55a5.13,5.13,0,1,1,9.64-3.51l8.57,23.55A5.13,5.13,0,0,1,157.32,333.27ZM168,322.58a.31.31,0,0,1-.29.19.25.25,0,0,1-.12,0,.33.33,0,0,1-.18-.41A16.87,16.87,0,0,0,160,302a.33.33,0,0,1-.13-.43.32.32,0,0,1,.43-.14A17.52,17.52,0,0,1,168,322.58Z" transform="translate(-79.52 -228.51)"/><path class="cls-5" d="M188.89,286.52a5.81,5.81,0,0,1-3.35,3.74c-2.84,1-4.48.66-8.81-.6A146.34,146.34,0,0,1,163,284.37a19.83,19.83,0,0,0-3.34-1.3c-2.93-.89-3.64-.5-3.9-.32-.72.5-.87,1.43-1,2.7s.36,6.3,2.38,9.08a5.09,5.09,0,0,0,2.05,1.69,3.48,3.48,0,0,0,2.18.11,10.5,10.5,0,0,0,2.16-1.23c-.11.16-1.9,2.75-4.49,2.93-2.16.15-3.49-1-5.07-2.75-3.39-3.74-4.39-9.78-4.72-12.32s.06-8,2.86-8.66c.48-.12,1.54-.86,9.89,3,2.65,1.23,3.38,1.81,8.68,4.31,6.58,3.11,6.27,2.91,8.82,4s5.18.45,6.28-.95c2.89-3.67-4.7-8.48-4.7-8.48s5.57,1.4,7.46,6A8.53,8.53,0,0,1,188.89,286.52Z" transform="translate(-79.52 -228.51)"/><path class="cls-6" d="M134.69,368.75V360.5h1.67v3.25h3.26V360.5h1.66v8.25h-1.66v-3.61h-3.26v3.61Z" transform="translate(-79.52 -228.51)"/><path class="cls-6" d="M158.41,368.75v-8.18h1.66v6.79h4.14v1.39Z" transform="translate(-79.52 -228.51)"/><path class="cls-6" d="M155,366.33a3,3,0,0,1-2,.76,2.45,2.45,0,1,1,0-4.85,2.9,2.9,0,0,1,2.14.88h2.19a4.72,4.72,0,0,0-4.33-2.55,4.13,4.13,0,1,0,0,8.18,4.73,4.73,0,0,0,4.26-2.42Z" transform="translate(-79.52 -228.51)"/><path class="cls-6" d="M142.39,368.75V360.5h5.66v1.4h-4v2h3.44v1.4h-3.44v3.5Z" transform="translate(-79.52 -228.51)"/><text class="cls-7" transform="translate(45 140.24)"><tspan class="cls-8">b</tspan><tspan x="4.18" y="0">y</tspan></text><text class="cls-9" transform="translate(151.8 140.87)">Product by HFCL Limited</text></svg>