<?xml version="1.0"?>
<svg xmlns="http://www.w3.org/2000/svg" xmlns:xlink="http://www.w3.org/1999/xlink" xmlns:svgjs="http://svgjs.com/svgjs" version="1.1" width="512" height="512" x="0" y="0" viewBox="0 0 249.632 249.632" style="enable-background:new 0 0 512 512" xml:space="preserve" class=""><g>
<path xmlns="http://www.w3.org/2000/svg" d="M119.828,245.188l4.988,4.443l4.988-4.443c3.981-3.547,97.512-87.491,97.512-142.688c0-56.519-45.981-102.5-102.5-102.5  s-102.5,45.981-102.5,102.5C22.316,157.697,115.846,241.642,119.828,245.188z M124.816,15c48.248,0,87.5,39.252,87.5,87.5  c0,37.863-59.077,100.557-87.5,126.944c-28.423-26.388-87.5-89.081-87.5-126.944C37.316,54.252,76.568,15,124.816,15z   M178.013,99.813c0-29.333-23.864-53.196-53.197-53.196S71.619,70.479,71.619,99.813c0,29.334,23.864,53.198,53.197,53.198  S178.013,129.146,178.013,99.813z M86.619,99.813c0-21.062,17.135-38.196,38.197-38.196s38.197,17.135,38.197,38.196  c0,21.063-17.135,38.198-38.197,38.198S86.619,120.875,86.619,99.813z" fill="#ffffff" data-original="#000000" style=""/>
<g xmlns="http://www.w3.org/2000/svg">
</g>
<g xmlns="http://www.w3.org/2000/svg">
</g>
<g xmlns="http://www.w3.org/2000/svg">
</g>
<g xmlns="http://www.w3.org/2000/svg">
</g>
<g xmlns="http://www.w3.org/2000/svg">
</g>
<g xmlns="http://www.w3.org/2000/svg">
</g>
<g xmlns="http://www.w3.org/2000/svg">
</g>
<g xmlns="http://www.w3.org/2000/svg">
</g>
<g xmlns="http://www.w3.org/2000/svg">
</g>
<g xmlns="http://www.w3.org/2000/svg">
</g>
<g xmlns="http://www.w3.org/2000/svg">
</g>
<g xmlns="http://www.w3.org/2000/svg">
</g>
<g xmlns="http://www.w3.org/2000/svg">
</g>
<g xmlns="http://www.w3.org/2000/svg">
</g>
<g xmlns="http://www.w3.org/2000/svg">
</g>
</g></svg>
