<?xml version="1.0" standalone="no"?>
<!DOCTYPE svg PUBLIC "-//W3C//DTD SVG 20010904//EN"
 "http://www.w3.org/TR/2001/REC-SVG-20010904/DTD/svg10.dtd">
<svg version="1.0" xmlns="http://www.w3.org/2000/svg"
 width="48.000000pt" height="48.000000pt" viewBox="0 0 48.000000 48.000000"
 preserveAspectRatio="xMidYMid meet">

<g transform="translate(0.000000,48.000000) scale(0.100000,-0.100000)"
fill="#000000" stroke="none">
<path d="M188 268 l52 -53 52 53 53 52 -105 0 -105 0 53 -52z"/>
<path d="M130 240 l0 -65 32 33 33 32 -33 32 -32 33 0 -65z"/>
<path d="M315 270 l-29 -30 32 -33 32 -32 0 63 c0 34 -1 62 -3 62 -2 0 -16
-14 -32 -30z"/>
<path d="M170 195 l-34 -35 104 0 104 0 -34 35 c-32 33 -35 34 -52 18 -17 -15
-19 -15 -36 0 -17 16 -20 15 -52 -18z"/>
</g>
</svg>
